<svg width="19" height="19" viewBox="0 0 19 19" fill="none" xmlns="http://www.w3.org/2000/svg">
<path d="M15.1336 9.83698C15.1336 13.6205 12.4851 15.5122 9.33724 16.6094C9.17241 16.6653 8.99335 16.6626 8.83026 16.6019C5.67482 15.5122 3.02637 13.6205 3.02637 9.83698V4.54008C3.02637 4.33939 3.10609 4.14692 3.248 4.00501C3.38991 3.8631 3.58238 3.78338 3.78307 3.78338C5.29647 3.78338 7.18822 2.87534 8.50487 1.72516C8.66518 1.58819 8.86911 1.51294 9.07997 1.51294C9.29082 1.51294 9.49475 1.58819 9.65506 1.72516C10.9793 2.88291 12.8635 3.78338 14.3769 3.78338C14.5776 3.78338 14.77 3.8631 14.9119 4.00501C15.0538 4.14692 15.1336 4.33939 15.1336 4.54008V9.83698Z" stroke="#00A1FF" stroke-width="1.5134" stroke-linecap="round" stroke-linejoin="round"/>
<path d="M6.80981 9.08029L8.32321 10.5937L11.35 7.56689" stroke="#00A1FF" stroke-width="1.5134" stroke-linecap="round" stroke-linejoin="round"/>
</svg>
