<svg width="19" height="19" viewBox="0 0 19 19" fill="none" xmlns="http://www.w3.org/2000/svg">
<path d="M10.6742 4.20195C10.8842 4.30692 11.1158 4.36157 11.3507 4.36157C11.5855 4.36157 11.8171 4.30692 12.0272 4.20195L14.7959 2.81719C14.9114 2.7595 15.0397 2.7323 15.1686 2.73817C15.2975 2.74404 15.4228 2.78279 15.5325 2.85074C15.6423 2.91868 15.7328 3.01357 15.7955 3.12637C15.8582 3.23917 15.8911 3.36613 15.8909 3.4952V13.1537C15.8908 13.2942 15.8516 13.4319 15.7777 13.5514C15.7038 13.6709 15.5981 13.7674 15.4724 13.8302L12.0272 15.5532C11.8171 15.6582 11.5855 15.7128 11.3507 15.7128C11.1158 15.7128 10.8842 15.6582 10.6742 15.5532L7.48696 13.9596C7.2769 13.8546 7.04529 13.8 6.81047 13.8C6.57564 13.8 6.34404 13.8546 6.13398 13.9596L3.36521 15.3444C3.2497 15.4021 3.12134 15.4293 2.99235 15.4234C2.86336 15.4175 2.73802 15.3787 2.62827 15.3106C2.51852 15.2426 2.42801 15.1476 2.36534 15.0347C2.30268 14.9218 2.26995 14.7947 2.27027 14.6656V5.00784C2.27034 4.86735 2.30953 4.72965 2.38343 4.61017C2.45734 4.49069 2.56305 4.39415 2.68872 4.33135L6.13398 2.60834C6.34404 2.50338 6.57564 2.44873 6.81047 2.44873C7.04529 2.44873 7.2769 2.50338 7.48696 2.60834L10.6742 4.20195Z" stroke="#00A1FF" stroke-width="1.5134" stroke-linecap="round" stroke-linejoin="round"/>
<path d="M11.3506 4.36157V15.7121" stroke="#00A1FF" stroke-width="1.5134" stroke-linecap="round" stroke-linejoin="round"/>
<path d="M6.81055 2.44873V13.7992" stroke="#00A1FF" stroke-width="1.5134" stroke-linecap="round" stroke-linejoin="round"/>
</svg>
