<svg width="20" height="20" viewBox="0 0 20 20" fill="none" xmlns="http://www.w3.org/2000/svg">
<g clip-path="url(#clip0_134_164)">
<path d="M10.48 1.78062C10.2671 1.68354 10.0359 1.6333 9.802 1.6333C9.56808 1.6333 9.33688 1.68354 9.12405 1.78062L2.12398 4.96618C1.97904 5.03009 1.85581 5.13477 1.76929 5.26746C1.68278 5.40016 1.63672 5.55515 1.63672 5.71356C1.63672 5.87197 1.68278 6.02696 1.76929 6.15966C1.85581 6.29235 1.97904 6.39703 2.12398 6.46094L9.13222 9.65467C9.34505 9.75175 9.57624 9.80199 9.81017 9.80199C10.0441 9.80199 10.2753 9.75175 10.4881 9.65467L17.4964 6.46911C17.6413 6.4052 17.7645 6.30052 17.851 6.16782C17.9376 6.03513 17.9836 5.88014 17.9836 5.72173C17.9836 5.56332 17.9376 5.40833 17.851 5.27563C17.7645 5.14294 17.6413 5.03826 17.4964 4.97435L10.48 1.78062Z" stroke="#00A1FF" stroke-width="1.63362" stroke-linecap="round" stroke-linejoin="round"/>
<path d="M1.63355 9.80225C1.63316 9.95847 1.67759 10.1115 1.76156 10.2433C1.84553 10.375 1.96552 10.4799 2.1073 10.5455L9.13187 13.7393C9.34358 13.8351 9.57332 13.8847 9.80574 13.8847C10.0381 13.8847 10.2679 13.8351 10.4796 13.7393L17.4878 10.5537C17.6324 10.4887 17.755 10.3831 17.8405 10.2496C17.9261 10.1162 17.971 9.96076 17.9698 9.80225" stroke="#00A1FF" stroke-width="1.63362" stroke-linecap="round" stroke-linejoin="round"/>
<path d="M1.63355 13.8857C1.63316 14.042 1.67759 14.195 1.76156 14.3268C1.84553 14.4585 1.96552 14.5634 2.1073 14.629L9.13187 17.8228C9.34358 17.9186 9.57332 17.9682 9.80574 17.9682C10.0381 17.9682 10.2679 17.9186 10.4796 17.8228L17.4878 14.6372C17.6324 14.5722 17.755 14.4666 17.8405 14.3331C17.9261 14.1997 17.971 14.0443 17.9698 13.8857" stroke="#00A1FF" stroke-width="1.63362" stroke-linecap="round" stroke-linejoin="round"/>
</g>
<defs>
<clipPath id="clip0_134_164">
<rect width="19.6035" height="19.6035" fill="white"/>
</clipPath>
</defs>
</svg>
