<svg width="20" height="20" viewBox="0 0 20 20" fill="none" xmlns="http://www.w3.org/2000/svg">
<path d="M17.1074 6.11008V4.8881C17.1074 4.45598 16.9357 4.04156 16.6302 3.736C16.3246 3.43045 15.9102 3.25879 15.4781 3.25879H4.07291C3.64079 3.25879 3.22637 3.43045 2.92082 3.736C2.61526 4.04156 2.4436 4.45598 2.4436 4.8881V16.2933C2.4436 16.7254 2.61526 17.1398 2.92082 17.4454C3.22637 17.7509 3.64079 17.9226 4.07291 17.9226H6.92421" stroke="#1A1A1A" stroke-width="1.62931" stroke-linecap="round" stroke-linejoin="round"/>
<path d="M13.0342 1.62939V4.88802" stroke="#1A1A1A" stroke-width="1.62931" stroke-linecap="round" stroke-linejoin="round"/>
<path d="M6.51709 1.62939V4.88802" stroke="#1A1A1A" stroke-width="1.62931" stroke-linecap="round" stroke-linejoin="round"/>
<path d="M2.4436 8.14697H6.51688" stroke="#1A1A1A" stroke-width="1.62931" stroke-linecap="round" stroke-linejoin="round"/>
<path d="M14.2562 14.2571L13.0342 13.2795V11.4058" stroke="#1A1A1A" stroke-width="1.62931" stroke-linecap="round" stroke-linejoin="round"/>
<path d="M13.0344 17.9228C15.7339 17.9228 17.9223 15.7344 17.9223 13.0349C17.9223 10.3354 15.7339 8.14697 13.0344 8.14697C10.3349 8.14697 8.14648 10.3354 8.14648 13.0349C8.14648 15.7344 10.3349 17.9228 13.0344 17.9228Z" stroke="#1A1A1A" stroke-width="1.62931" stroke-linecap="round" stroke-linejoin="round"/>
</svg>
