<svg width="20" height="20" viewBox="0 0 20 20" fill="none" xmlns="http://www.w3.org/2000/svg">
<path d="M13.0346 16.2932V3.2587C13.0346 2.82658 12.8629 2.41216 12.5574 2.10661C12.2518 1.80105 11.8374 1.62939 11.4053 1.62939H8.14664C7.71452 1.62939 7.3001 1.80105 6.99455 2.10661C6.68899 2.41216 6.51733 2.82658 6.51733 3.2587V16.2932" stroke="#004182" stroke-width="1.62931" stroke-linecap="round" stroke-linejoin="round"/>
<path d="M16.2932 4.88818H3.2587C2.35886 4.88818 1.62939 5.61765 1.62939 6.51749V14.664C1.62939 15.5639 2.35886 16.2934 3.2587 16.2934H16.2932C17.193 16.2934 17.9225 15.5639 17.9225 14.664V6.51749C17.9225 5.61765 17.193 4.88818 16.2932 4.88818Z" stroke="#004182" stroke-width="1.62931" stroke-linecap="round" stroke-linejoin="round"/>
</svg>
