<svg width="20" height="20" viewBox="0 0 20 20" fill="none" xmlns="http://www.w3.org/2000/svg">
<path d="M3.27049 11.4455C3.11579 11.4461 2.96411 11.4027 2.83309 11.3204C2.70206 11.2382 2.59706 11.1204 2.53028 10.9809C2.4635 10.8414 2.43769 10.6857 2.45584 10.5321C2.474 10.3785 2.53537 10.2331 2.63283 10.113L10.7262 1.77441C10.7869 1.70433 10.8696 1.65698 10.9608 1.64012C11.0519 1.62326 11.1461 1.63789 11.2279 1.68162C11.3096 1.72535 11.3741 1.79558 11.4107 1.88077C11.4473 1.96596 11.4538 2.06106 11.4292 2.15046L9.85961 7.07186C9.81332 7.19573 9.79778 7.32898 9.81431 7.46018C9.83084 7.59138 9.87895 7.71661 9.95451 7.82513C10.0301 7.93365 10.1308 8.02222 10.2481 8.08325C10.3655 8.14427 10.4958 8.17592 10.6281 8.17549H16.3506C16.5053 8.17497 16.657 8.21835 16.788 8.30059C16.9191 8.38284 17.0241 8.50057 17.0908 8.64012C17.1576 8.77967 17.1834 8.9353 17.1653 9.08893C17.1471 9.24256 17.0857 9.38789 16.9883 9.50803L8.89495 17.8466C8.83424 17.9167 8.75151 17.964 8.66034 17.9809C8.56917 17.9978 8.47497 17.9831 8.39322 17.9394C8.31146 17.8957 8.247 17.8254 8.21042 17.7402C8.17383 17.6551 8.1673 17.56 8.19189 17.4706L9.7615 12.5492C9.80779 12.4253 9.82333 12.292 9.8068 12.1608C9.79027 12.0296 9.74216 11.9044 9.6666 11.7959C9.59104 11.6874 9.49028 11.5988 9.37296 11.5378C9.25565 11.4768 9.12528 11.4451 8.99305 11.4455H3.27049Z" stroke="white" stroke-width="1.63502" stroke-linecap="round" stroke-linejoin="round"/>
</svg>
