<svg width="20" height="20" viewBox="0 0 20 20" fill="none" xmlns="http://www.w3.org/2000/svg">
<path d="M13.0346 17.1081V15.4788C13.0346 14.6146 12.6913 13.7858 12.0801 13.1746C11.469 12.5635 10.6402 12.2202 9.77595 12.2202H4.88802C4.02378 12.2202 3.19493 12.5635 2.58382 13.1746C1.97271 13.7858 1.62939 14.6146 1.62939 15.4788V17.1081" stroke="#004182" stroke-width="1.62931" stroke-linecap="round" stroke-linejoin="round"/>
<path d="M7.33162 8.96109C9.13131 8.96109 10.5902 7.50215 10.5902 5.70247C10.5902 3.90278 9.13131 2.44385 7.33162 2.44385C5.53193 2.44385 4.073 3.90278 4.073 5.70247C4.073 7.50215 5.53193 8.96109 7.33162 8.96109Z" stroke="#004182" stroke-width="1.62931" stroke-linecap="round" stroke-linejoin="round"/>
<path d="M17.9225 17.1077V15.4784C17.9219 14.7564 17.6816 14.055 17.2393 13.4844C16.7969 12.9137 16.1776 12.5062 15.4785 12.3257" stroke="#004182" stroke-width="1.62931" stroke-linecap="round" stroke-linejoin="round"/>
<path d="M13.0342 2.5498C13.7351 2.72927 14.3564 3.13693 14.8001 3.7085C15.2437 4.28007 15.4845 4.98304 15.4845 5.70659C15.4845 6.43015 15.2437 7.13312 14.8001 7.70469C14.3564 8.27626 13.7351 8.68391 13.0342 8.86338" stroke="#004182" stroke-width="1.62931" stroke-linecap="round" stroke-linejoin="round"/>
</svg>
