<svg width="31" height="31" viewBox="0 0 31 31" fill="none" xmlns="http://www.w3.org/2000/svg">
<path d="M0 15.134C0 6.77572 6.77572 0 15.134 0C23.4923 0 30.268 6.77572 30.268 15.134C30.268 23.4923 23.4923 30.268 15.134 30.268C6.77572 30.268 0 23.4923 0 15.134Z" fill="white" fill-opacity="0.05"/>
<g clip-path="url(#clip0_138_307)">
<path d="M11.7285 20.8095V10.594C11.7285 10.293 11.8481 10.0043 12.061 9.79143C12.2738 9.57857 12.5625 9.45898 12.8636 9.45898H17.4038C17.7048 9.45898 17.9935 9.57857 18.2064 9.79143C18.4192 10.0043 18.5388 10.293 18.5388 10.594V20.8095H11.7285Z" stroke="#00A1FF" stroke-width="1.13505" stroke-linecap="round" stroke-linejoin="round"/>
<path d="M11.7284 15.1343H10.5933C10.2923 15.1343 10.0036 15.2539 9.7907 15.4667C9.57784 15.6796 9.45825 15.9683 9.45825 16.2693V19.6745C9.45825 19.9755 9.57784 20.2642 9.7907 20.4771C10.0036 20.6899 10.2923 20.8095 10.5933 20.8095H11.7284" stroke="#00A1FF" stroke-width="1.13505" stroke-linecap="round" stroke-linejoin="round"/>
<path d="M18.5388 13.4316H19.6739C19.9749 13.4316 20.2636 13.5512 20.4765 13.7641C20.6893 13.977 20.8089 14.2657 20.8089 14.5667V19.6744C20.8089 19.9754 20.6893 20.2642 20.4765 20.477C20.2636 20.6899 19.9749 20.8095 19.6739 20.8095H18.5388" stroke="#00A1FF" stroke-width="1.13505" stroke-linecap="round" stroke-linejoin="round"/>
<path d="M13.9985 11.729H16.2686" stroke="#00A1FF" stroke-width="1.13505" stroke-linecap="round" stroke-linejoin="round"/>
<path d="M13.9985 13.999H16.2686" stroke="#00A1FF" stroke-width="1.13505" stroke-linecap="round" stroke-linejoin="round"/>
<path d="M13.9985 16.269H16.2686" stroke="#00A1FF" stroke-width="1.13505" stroke-linecap="round" stroke-linejoin="round"/>
<path d="M13.9985 18.5396H16.2686" stroke="#00A1FF" stroke-width="1.13505" stroke-linecap="round" stroke-linejoin="round"/>
</g>
<defs>
<clipPath id="clip0_138_307">
<rect width="13.6206" height="13.6206" fill="white" transform="translate(8.32373 8.32373)"/>
</clipPath>
</defs>
</svg>
