<svg width="14" height="14" viewBox="0 0 14 14" fill="none" xmlns="http://www.w3.org/2000/svg">
<path d="M11.3502 7.3778C11.3502 10.2154 9.36384 11.6342 7.00293 12.4571C6.87931 12.499 6.74501 12.497 6.62269 12.4515C4.25611 11.6342 2.26978 10.2154 2.26978 7.3778V3.40512C2.26978 3.2546 2.32957 3.11025 2.436 3.00382C2.54243 2.89739 2.68678 2.8376 2.8373 2.8376C3.97235 2.8376 5.39116 2.15657 6.37866 1.29393C6.49889 1.19121 6.65184 1.13477 6.80998 1.13477C6.96811 1.13477 7.12106 1.19121 7.24129 1.29393C8.23446 2.16224 9.6476 2.8376 10.7826 2.8376C10.9332 2.8376 11.0775 2.89739 11.184 3.00382C11.2904 3.11025 11.3502 3.2546 11.3502 3.40512V7.3778Z" stroke="#00A1FF" stroke-width="1.13505" stroke-linecap="round" stroke-linejoin="round"/>
<path d="M5.10742 6.81034L6.24247 7.94539L8.51257 5.67529" stroke="#00A1FF" stroke-width="1.13505" stroke-linecap="round" stroke-linejoin="round"/>
</svg>
