<svg width="14" height="14" viewBox="0 0 14 14" fill="none" xmlns="http://www.w3.org/2000/svg">
<path d="M10.1025 10.8965L9.08095 6.2428L11.0673 4.25646C11.9186 3.40518 12.2023 2.27013 11.9186 1.7026C11.351 1.41884 10.216 1.7026 9.36471 2.55389L7.37837 4.54023L2.72467 3.51868C2.44091 3.46193 2.2139 3.57543 2.10039 3.80244L1.93014 4.08621C1.81663 4.36997 1.87338 4.65373 2.10039 4.82399L5.10827 6.81033L3.97322 8.5129H2.27065L1.70312 9.08043L3.4057 10.2155L4.54075 11.9181L5.10827 11.3505V9.64795L6.81085 8.5129L8.79719 11.5208C8.96744 11.7478 9.25121 11.8045 9.53497 11.691L9.81873 11.5775C10.0457 11.4073 10.1592 11.1803 10.1025 10.8965Z" stroke="#00A1FF" stroke-width="1.13505" stroke-linecap="round" stroke-linejoin="round"/>
</svg>
