<svg width="14" height="14" viewBox="0 0 14 14" fill="none" xmlns="http://www.w3.org/2000/svg">
<g clip-path="url(#clip0_138_301)">
<path d="M10.7827 7.94541C11.6283 7.11682 12.4853 6.12366 12.4853 4.82402C12.4853 3.99618 12.1564 3.20224 11.571 2.61687C10.9857 2.0315 10.1917 1.70264 9.36388 1.70264C8.36503 1.70264 7.6613 1.9864 6.81002 2.83769C5.95873 1.9864 5.255 1.70264 4.25615 1.70264C3.42831 1.70264 2.63437 2.0315 2.049 2.61687C1.46363 3.20224 1.13477 3.99618 1.13477 4.82402C1.13477 6.12933 1.98605 7.1225 2.83734 7.94541L6.81002 11.9181L10.7827 7.94541Z" stroke="#00A1FF" stroke-width="1.13505" stroke-linecap="round" stroke-linejoin="round"/>
<path d="M1.82715 6.81007H5.3912L5.67497 6.24254L6.81002 8.79641L7.94507 4.82373L8.79635 6.81007H11.7872" stroke="#00A1FF" stroke-width="1.13505" stroke-linecap="round" stroke-linejoin="round"/>
</g>
<defs>
<clipPath id="clip0_138_301">
<rect width="13.6206" height="13.6206" fill="white"/>
</clipPath>
</defs>
</svg>
