<svg width="14" height="14" viewBox="0 0 14 14" fill="none" xmlns="http://www.w3.org/2000/svg">
<path d="M2.26966 7.94557C2.16226 7.94593 2.05696 7.91582 1.966 7.85872C1.87504 7.80163 1.80215 7.71989 1.75579 7.62302C1.70943 7.52614 1.69151 7.4181 1.70412 7.31145C1.71672 7.20479 1.75933 7.1039 1.82699 7.0205L7.44548 1.23175C7.48763 1.1831 7.54506 1.15023 7.60835 1.13852C7.67164 1.12682 7.73703 1.13698 7.79379 1.16733C7.85055 1.19769 7.8953 1.24644 7.92069 1.30559C7.94609 1.36473 7.95062 1.43075 7.93355 1.49281L6.84391 4.90931C6.81178 4.9953 6.80099 5.08781 6.81246 5.17889C6.82394 5.26997 6.85733 5.3569 6.90979 5.43224C6.96225 5.50758 7.0322 5.56906 7.11364 5.61143C7.19508 5.65379 7.28558 5.67577 7.37738 5.67547H11.3501C11.4575 5.6751 11.5627 5.70521 11.6537 5.76231C11.7447 5.81941 11.8176 5.90114 11.8639 5.99802C11.9103 6.09489 11.9282 6.20293 11.9156 6.30959C11.903 6.41624 11.8604 6.51713 11.7927 6.60053L6.17423 12.3893C6.13208 12.4379 6.07465 12.4708 6.01136 12.4825C5.94807 12.4942 5.88268 12.4841 5.82592 12.4537C5.76916 12.4233 5.72442 12.3746 5.69902 12.3154C5.67362 12.2563 5.66909 12.1903 5.68616 12.1282L6.7758 8.71173C6.80793 8.62573 6.81873 8.53323 6.80725 8.44215C6.79577 8.35107 6.76238 8.26413 6.70992 8.18879C6.65746 8.11346 6.58751 8.05197 6.50607 8.00961C6.42463 7.96724 6.33413 7.94527 6.24233 7.94557H2.26966Z" stroke="#00A1FF" stroke-width="1.13505" stroke-linecap="round" stroke-linejoin="round"/>
</svg>
