<svg width="94" height="47" viewBox="0 0 94 47" fill="none" xmlns="http://www.w3.org/2000/svg">
<path d="M0.740891 17.7755V18.5162H0.000244141V17.7755H0.740891ZM0.740891 17.0349V17.7755H0.000244141V17.0349H0.740891ZM0.740891 16.2942V17.0349H0.000244141V16.2942H0.740891ZM0.740891 15.5536V16.2942H0.000244141V15.5536H0.740891ZM0.740891 14.8129V15.5536H0.000244141V14.8129H0.740891ZM0.740891 14.0723V14.8129H0.000244141V14.0723H0.740891ZM0.740891 13.3317V14.0723H0.000244141V13.3317H0.740891ZM0.740891 12.591V13.3317H0.000244141V12.591H0.740891ZM0.740891 11.8504V12.591H0.000244141V11.8504H0.740891ZM0.740891 11.1097V11.8504H0.000244141V11.1097H0.740891ZM0.740891 10.3691V11.1097H0.000244141V10.3691H0.740891ZM0.740891 9.62842V10.3691H0.000244141V9.62842H0.740891ZM0.740891 8.88777V9.62842H0.000244141V8.88777H0.740891ZM0.740891 8.14712V8.88777H0.000244141V8.14712H0.740891ZM0.740891 7.40647V8.14712H0.000244141V7.40647H0.740891ZM1.48154 7.40647V8.14712H0.740891V7.40647H1.48154ZM1.48154 8.14712V8.88777H0.740891V8.14712H1.48154ZM1.48154 8.88777V9.62842H0.740891V8.88777H1.48154ZM1.48154 9.62842V10.3691H0.740891V9.62842H1.48154ZM1.48154 10.3691V11.1097H0.740891V10.3691H1.48154ZM1.48154 11.1097V11.8504H0.740891V11.1097H1.48154ZM1.48154 11.8504V12.591H0.740891V11.8504H1.48154ZM2.22219 12.591V13.3317H1.48154V12.591H2.22219ZM2.22219 13.3317V14.0723H1.48154V13.3317H2.22219ZM2.22219 14.0723V14.8129H1.48154V14.0723H2.22219ZM2.22219 14.8129V15.5536H1.48154V14.8129H2.22219ZM2.22219 15.5536V16.2942H1.48154V15.5536H2.22219ZM2.22219 16.2942V17.0349H1.48154V16.2942H2.22219ZM2.22219 17.0349V17.7755H1.48154V17.0349H2.22219ZM2.22219 17.7755V18.5162H1.48154V17.7755H2.22219ZM2.96283 17.7755V18.5162H2.22219V17.7755H2.96283ZM3.70348 17.7755V18.5162H2.96283V17.7755H3.70348ZM3.70348 17.0349V17.7755H2.96283V17.0349H3.70348ZM3.70348 16.2942V17.0349H2.96283V16.2942H3.70348ZM3.70348 15.5536V16.2942H2.96283V15.5536H3.70348ZM3.70348 14.8129V15.5536H2.96283V14.8129H3.70348ZM3.70348 14.0723V14.8129H2.96283V14.0723H3.70348ZM3.70348 13.3317V14.0723H2.96283V13.3317H3.70348ZM3.70348 12.591V13.3317H2.96283V12.591H3.70348ZM2.96283 12.591V13.3317H2.22219V12.591H2.96283ZM2.96283 11.8504V12.591H2.22219V11.8504H2.96283ZM2.96283 13.3317V14.0723H2.22219V13.3317H2.96283ZM2.96283 14.0723V14.8129H2.22219V14.0723H2.96283ZM2.96283 14.8129V15.5536H2.22219V14.8129H2.96283ZM2.96283 15.5536V16.2942H2.22219V15.5536H2.96283ZM2.96283 16.2942V17.0349H2.22219V16.2942H2.96283ZM2.96283 17.0349V17.7755H2.22219V17.0349H2.96283ZM1.48154 17.7755V18.5162H0.740891V17.7755H1.48154ZM1.48154 17.0349V17.7755H0.740891V17.0349H1.48154ZM1.48154 16.2942V17.0349H0.740891V16.2942H1.48154ZM1.48154 15.5536V16.2942H0.740891V15.5536H1.48154ZM1.48154 14.8129V15.5536H0.740891V14.8129H1.48154ZM1.48154 14.0723V14.8129H0.740891V14.0723H1.48154ZM1.48154 13.3317V14.0723H0.740891V13.3317H1.48154ZM1.48154 12.591V13.3317H0.740891V12.591H1.48154ZM0.740891 5.18453V5.92518H0.000244141V5.18453H0.740891ZM0.740891 5.92518V6.66583H0.000244141V5.92518H0.740891ZM0.740891 6.66583V7.40647H0.000244141V6.66583H0.740891ZM2.96283 3.70324V4.44388H2.22219V3.70324H2.96283ZM2.96283 5.18453V5.92518H2.22219V5.18453H2.96283ZM2.96283 5.92518V6.66583H2.22219V5.92518H2.96283ZM2.96283 6.66583V7.40647H2.22219V6.66583H2.96283ZM2.96283 7.40647V8.14712H2.22219V7.40647H2.96283ZM2.96283 8.14712V8.88777H2.22219V8.14712H2.96283ZM2.96283 8.88777V9.62842H2.22219V8.88777H2.96283ZM2.96283 9.62842V10.3691H2.22219V9.62842H2.96283ZM3.70348 10.3691V11.1097H2.96283V10.3691H3.70348ZM3.70348 11.1097V11.8504H2.96283V11.1097H3.70348ZM3.70348 11.8504V12.591H2.96283V11.8504H3.70348ZM3.70348 9.62842V10.3691H2.96283V9.62842H3.70348ZM3.70348 8.88777V9.62842H2.96283V8.88777H3.70348ZM3.70348 8.14712V8.88777H2.96283V8.14712H3.70348ZM3.70348 7.40647V8.14712H2.96283V7.40647H3.70348ZM3.70348 6.66583V7.40647H2.96283V6.66583H3.70348ZM3.70348 5.92518V6.66583H2.96283V5.92518H3.70348ZM3.70348 5.18453V5.92518H2.96283V5.18453H3.70348ZM3.70348 4.44388V5.18453H2.96283V4.44388H3.70348ZM3.70348 3.70324V4.44388H2.96283V3.70324H3.70348ZM3.70348 2.96259V3.70324H2.96283V2.96259H3.70348ZM2.96283 4.44388V5.18453H2.22219V4.44388H2.96283ZM3.70348 2.22194V2.96259H2.96283V2.22194H3.70348ZM3.70348 1.48129V2.22194H2.96283V1.48129H3.70348ZM2.22219 3.70324V4.44388H1.48154V3.70324H2.22219ZM2.22219 4.44388V5.18453H1.48154V4.44388H2.22219ZM2.22219 5.18453V5.92518H1.48154V5.18453H2.22219ZM1.48154 5.92518V6.66583H0.740891V5.92518H1.48154ZM1.48154 6.66583V7.40647H0.740891V6.66583H1.48154ZM1.48154 5.18453V5.92518H0.740891V5.18453H1.48154ZM1.48154 4.44388V5.18453H0.740891V4.44388H1.48154ZM2.22219 5.92518V6.66583H1.48154V5.92518H2.22219ZM2.22219 6.66583V7.40647H1.48154V6.66583H2.22219ZM2.22219 7.40647V8.14712H1.48154V7.40647H2.22219ZM2.22219 8.14712V8.88777H1.48154V8.14712H2.22219ZM2.22219 8.88777V9.62842H1.48154V8.88777H2.22219ZM2.22219 9.62842V10.3691H1.48154V9.62842H2.22219ZM2.22219 10.3691V11.1097H1.48154V10.3691H2.22219ZM2.22219 11.1097V11.8504H1.48154V11.1097H2.22219ZM2.22219 11.8504V12.591H1.48154V11.8504H2.22219ZM2.96283 11.1097V11.8504H2.22219V11.1097H2.96283ZM2.96283 10.3691V11.1097H2.22219V10.3691H2.96283ZM8.88801 17.7755V18.5162H8.14736V17.7755H8.88801ZM8.88801 17.0349V17.7755H8.14736V17.0349H8.88801ZM8.88801 16.2942V17.0349H8.14736V16.2942H8.88801ZM8.88801 15.5536V16.2942H8.14736V15.5536H8.88801ZM8.88801 14.8129V15.5536H8.14736V14.8129H8.88801ZM8.88801 14.0723V14.8129H8.14736V14.0723H8.88801ZM8.88801 13.3317V14.0723H8.14736V13.3317H8.88801ZM8.88801 12.591V13.3317H8.14736V12.591H8.88801ZM8.88801 11.8504V12.591H8.14736V11.8504H8.88801ZM8.88801 11.1097V11.8504H8.14736V11.1097H8.88801ZM8.88801 10.3691V11.1097H8.14736V10.3691H8.88801ZM8.88801 9.62842V10.3691H8.14736V9.62842H8.88801ZM8.88801 8.88777V9.62842H8.14736V8.88777H8.88801ZM8.88801 8.14712V8.88777H8.14736V8.14712H8.88801ZM8.88801 7.40647V8.14712H8.14736V7.40647H8.88801ZM9.62866 7.40647V8.14712H8.88801V7.40647H9.62866ZM9.62866 8.14712V8.88777H8.88801V8.14712H9.62866ZM9.62866 8.88777V9.62842H8.88801V8.88777H9.62866ZM9.62866 9.62842V10.3691H8.88801V9.62842H9.62866ZM9.62866 10.3691V11.1097H8.88801V10.3691H9.62866ZM9.62866 11.1097V11.8504H8.88801V11.1097H9.62866ZM9.62866 11.8504V12.591H8.88801V11.8504H9.62866ZM10.3693 12.591V13.3317H9.62866V12.591H10.3693ZM10.3693 13.3317V14.0723H9.62866V13.3317H10.3693ZM10.3693 14.0723V14.8129H9.62866V14.0723H10.3693ZM10.3693 14.8129V15.5536H9.62866V14.8129H10.3693ZM10.3693 15.5536V16.2942H9.62866V15.5536H10.3693ZM10.3693 16.2942V17.0349H9.62866V16.2942H10.3693ZM10.3693 17.0349V17.7755H9.62866V17.0349H10.3693ZM10.3693 17.7755V18.5162H9.62866V17.7755H10.3693ZM11.11 17.7755V18.5162H10.3693V17.7755H11.11ZM11.8506 17.7755V18.5162H11.11V17.7755H11.8506ZM11.8506 17.0349V17.7755H11.11V17.0349H11.8506ZM11.8506 16.2942V17.0349H11.11V16.2942H11.8506ZM11.8506 15.5536V16.2942H11.11V15.5536H11.8506ZM11.8506 14.8129V15.5536H11.11V14.8129H11.8506ZM11.8506 14.0723V14.8129H11.11V14.0723H11.8506ZM11.8506 13.3317V14.0723H11.11V13.3317H11.8506ZM11.8506 12.591V13.3317H11.11V12.591H11.8506ZM11.11 12.591V13.3317H10.3693V12.591H11.11ZM11.11 11.8504V12.591H10.3693V11.8504H11.11ZM11.11 13.3317V14.0723H10.3693V13.3317H11.11ZM11.11 14.0723V14.8129H10.3693V14.0723H11.11ZM11.11 14.8129V15.5536H10.3693V14.8129H11.11ZM11.11 15.5536V16.2942H10.3693V15.5536H11.11ZM11.11 16.2942V17.0349H10.3693V16.2942H11.11ZM11.11 17.0349V17.7755H10.3693V17.0349H11.11ZM9.62866 17.7755V18.5162H8.88801V17.7755H9.62866ZM9.62866 17.0349V17.7755H8.88801V17.0349H9.62866ZM9.62866 16.2942V17.0349H8.88801V16.2942H9.62866ZM9.62866 15.5536V16.2942H8.88801V15.5536H9.62866ZM9.62866 14.8129V15.5536H8.88801V14.8129H9.62866ZM9.62866 14.0723V14.8129H8.88801V14.0723H9.62866ZM9.62866 13.3317V14.0723H8.88801V13.3317H9.62866ZM9.62866 12.591V13.3317H8.88801V12.591H9.62866ZM8.88801 1.48129V2.22194H8.14736V1.48129H8.88801ZM8.88801 2.22194V2.96259H8.14736V2.22194H8.88801ZM8.88801 2.96259V3.70324H8.14736V2.96259H8.88801ZM8.88801 3.70324V4.44388H8.14736V3.70324H8.88801ZM8.88801 4.44388V5.18453H8.14736V4.44388H8.88801ZM8.88801 5.18453V5.92518H8.14736V5.18453H8.88801ZM8.88801 5.92518V6.66583H8.14736V5.92518H8.88801ZM8.88801 6.66583V7.40647H8.14736V6.66583H8.88801ZM11.11 3.70324V4.44388H10.3693V3.70324H11.11ZM11.11 5.18453V5.92518H10.3693V5.18453H11.11ZM11.11 5.92518V6.66583H10.3693V5.92518H11.11ZM11.11 6.66583V7.40647H10.3693V6.66583H11.11ZM11.11 7.40647V8.14712H10.3693V7.40647H11.11ZM11.11 8.14712V8.88777H10.3693V8.14712H11.11ZM11.11 8.88777V9.62842H10.3693V8.88777H11.11ZM11.11 9.62842V10.3691H10.3693V9.62842H11.11ZM11.8506 10.3691V11.1097H11.11V10.3691H11.8506ZM11.8506 11.1097V11.8504H11.11V11.1097H11.8506ZM11.8506 11.8504V12.591H11.11V11.8504H11.8506ZM11.8506 9.62842V10.3691H11.11V9.62842H11.8506ZM11.8506 8.88777V9.62842H11.11V8.88777H11.8506ZM11.8506 8.14712V8.88777H11.11V8.14712H11.8506ZM11.8506 7.40647V8.14712H11.11V7.40647H11.8506ZM11.8506 6.66583V7.40647H11.11V6.66583H11.8506ZM11.8506 5.92518V6.66583H11.11V5.92518H11.8506ZM11.8506 5.18453V5.92518H11.11V5.18453H11.8506ZM11.8506 4.44388V5.18453H11.11V4.44388H11.8506ZM11.11 4.44388V5.18453H10.3693V4.44388H11.11ZM10.3693 2.96259V3.70324H9.62866V2.96259H10.3693ZM10.3693 3.70324V4.44388H9.62866V3.70324H10.3693ZM10.3693 4.44388V5.18453H9.62866V4.44388H10.3693ZM10.3693 5.18453V5.92518H9.62866V5.18453H10.3693ZM9.62866 5.92518V6.66583H8.88801V5.92518H9.62866ZM9.62866 6.66583V7.40647H8.88801V6.66583H9.62866ZM9.62866 5.18453V5.92518H8.88801V5.18453H9.62866ZM9.62866 4.44388V5.18453H8.88801V4.44388H9.62866ZM9.62866 3.70324V4.44388H8.88801V3.70324H9.62866ZM9.62866 2.96259V3.70324H8.88801V2.96259H9.62866ZM9.62866 2.22194V2.96259H8.88801V2.22194H9.62866ZM10.3693 5.92518V6.66583H9.62866V5.92518H10.3693ZM10.3693 6.66583V7.40647H9.62866V6.66583H10.3693ZM10.3693 7.40647V8.14712H9.62866V7.40647H10.3693ZM10.3693 8.14712V8.88777H9.62866V8.14712H10.3693ZM10.3693 8.88777V9.62842H9.62866V8.88777H10.3693ZM10.3693 9.62842V10.3691H9.62866V9.62842H10.3693ZM10.3693 10.3691V11.1097H9.62866V10.3691H10.3693ZM10.3693 11.1097V11.8504H9.62866V11.1097H10.3693ZM10.3693 11.8504V12.591H9.62866V11.8504H10.3693ZM11.11 11.1097V11.8504H10.3693V11.1097H11.11ZM11.11 10.3691V11.1097H10.3693V10.3691H11.11ZM5.18478 0V0.740648H4.44413V0H5.18478ZM5.92542 0V0.740648H5.18478V0H5.92542ZM6.66607 0V0.740648H5.92542V0H6.66607ZM7.40672 0V0.740648H6.66607V0H7.40672ZM8.14736 0.740648V1.48129H7.40672V0.740648H8.14736ZM7.40672 0.740648V1.48129H6.66607V0.740648H7.40672ZM6.66607 0.740648V1.48129H5.92542V0.740648H6.66607ZM5.92542 0.740648V1.48129H5.18478V0.740648H5.92542ZM5.18478 0.740648V1.48129H4.44413V0.740648H5.18478ZM4.44413 0.740648V1.48129H3.70348V0.740648H4.44413ZM4.44413 1.48129V2.22194H3.70348V1.48129H4.44413ZM4.44413 2.22194V2.96259H3.70348V2.22194H4.44413ZM5.18478 1.48129V2.22194H4.44413V1.48129H5.18478ZM5.92542 1.48129V2.22194H5.18478V1.48129H5.92542ZM6.66607 1.48129V2.22194H5.92542V1.48129H6.66607ZM7.40672 1.48129V2.22194H6.66607V1.48129H7.40672ZM8.14736 1.48129V2.22194H7.40672V1.48129H8.14736ZM8.14736 2.22194V2.96259H7.40672V2.22194H8.14736ZM7.40672 2.22194V2.96259H6.66607V2.22194H7.40672ZM6.66607 2.22194V2.96259H5.92542V2.22194H6.66607ZM5.92542 2.22194V2.96259H5.18478V2.22194H5.92542ZM5.18478 2.22194V2.96259H4.44413V2.22194H5.18478ZM4.44413 2.96259V3.70324H3.70348V2.96259H4.44413ZM5.18478 2.96259V3.70324H4.44413V2.96259H5.18478ZM8.14736 2.96259V3.70324H7.40672V2.96259H8.14736ZM7.40672 2.96259V3.70324H6.66607V2.96259H7.40672ZM8.14736 3.70324V4.44388H7.40672V3.70324H8.14736ZM4.44413 3.70324V4.44388H3.70348V3.70324H4.44413ZM2.96283 2.22194V2.96259H2.22219V2.22194H2.96283ZM2.96283 2.96259V3.70324H2.22219V2.96259H2.96283ZM2.22219 2.96259V3.70324H1.48154V2.96259H2.22219ZM1.48154 3.70324V4.44388H0.740891V3.70324H1.48154ZM0.740891 4.44388V5.18453H0.000244141V4.44388H0.740891ZM4.44413 4.44388V5.18453H3.70348V4.44388H4.44413ZM5.18478 3.70324V4.44388H4.44413V3.70324H5.18478ZM5.92542 2.96259V3.70324H5.18478V2.96259H5.92542ZM6.66607 2.96259V3.70324H5.92542V2.96259H6.66607ZM7.40672 3.70324V4.44388H6.66607V3.70324H7.40672ZM8.14736 4.44388V5.18453H7.40672V4.44388H8.14736ZM4.44413 13.3317V14.0723H3.70348V13.3317H4.44413ZM5.18478 13.3317V14.0723H4.44413V13.3317H5.18478ZM5.92542 13.3317V14.0723H5.18478V13.3317H5.92542ZM6.66607 13.3317V14.0723H5.92542V13.3317H6.66607ZM7.40672 13.3317V14.0723H6.66607V13.3317H7.40672ZM8.14736 13.3317V14.0723H7.40672V13.3317H8.14736ZM8.14736 12.591V13.3317H7.40672V12.591H8.14736ZM7.40672 12.591V13.3317H6.66607V12.591H7.40672ZM6.66607 12.591V13.3317H5.92542V12.591H6.66607ZM5.92542 12.591V13.3317H5.18478V12.591H5.92542ZM5.18478 12.591V13.3317H4.44413V12.591H5.18478ZM4.44413 12.591V13.3317H3.70348V12.591H4.44413ZM4.44413 11.8504V12.591H3.70348V11.8504H4.44413ZM5.18478 11.8504V12.591H4.44413V11.8504H5.18478ZM5.92542 11.8504V12.591H5.18478V11.8504H5.92542ZM6.66607 11.8504V12.591H5.92542V11.8504H6.66607ZM7.40672 11.8504V12.591H6.66607V11.8504H7.40672ZM8.14736 11.8504V12.591H7.40672V11.8504H8.14736ZM8.14736 11.1097V11.8504H7.40672V11.1097H8.14736ZM7.40672 11.1097V11.8504H6.66607V11.1097H7.40672ZM6.66607 11.1097V11.8504H5.92542V11.1097H6.66607ZM5.92542 11.1097V11.8504H5.18478V11.1097H5.92542ZM5.18478 11.1097V11.8504H4.44413V11.1097H5.18478ZM4.44413 11.1097V11.8504H3.70348V11.1097H4.44413ZM4.44413 10.3691V11.1097H3.70348V10.3691H4.44413ZM5.18478 10.3691V11.1097H4.44413V10.3691H5.18478ZM5.92542 10.3691V11.1097H5.18478V10.3691H5.92542ZM6.66607 10.3691V11.1097H5.92542V10.3691H6.66607ZM7.40672 10.3691V11.1097H6.66607V10.3691H7.40672ZM8.14736 10.3691V11.1097H7.40672V10.3691H8.14736ZM5.92542 3.70324V4.44388H5.18478V3.70324H5.92542ZM6.66607 3.70324V4.44388H5.92542V3.70324H6.66607ZM5.18478 4.44388V5.18453H4.44413V4.44388H5.18478ZM4.44413 5.18453V5.92518H3.70348V5.18453H4.44413ZM7.40672 4.44388V5.18453H6.66607V4.44388H7.40672ZM8.14736 5.18453V5.92518H7.40672V5.18453H8.14736Z" fill="#0A0A0A"/>
<path d="M18.5309 6.66583H19.2715V7.40647H18.5309V6.66583ZM18.5309 5.92518H19.2715V6.66583H18.5309V5.92518ZM18.5309 5.18453H19.2715V5.92518H18.5309V5.18453ZM19.2715 5.18453H20.0122V5.92518H19.2715V5.18453ZM19.2715 5.92518H20.0122V6.66583H19.2715V5.92518ZM20.0122 5.92518H20.7528V6.66583H20.0122V5.92518ZM20.0122 6.66583H20.7528V7.40647H20.0122V6.66583ZM19.2715 6.66583H20.0122V7.40647H19.2715V6.66583ZM20.7528 6.66583H21.4935V7.40647H20.7528V6.66583ZM20.7528 5.92518H21.4935V6.66583H20.7528V5.92518ZM20.7528 5.18453H21.4935V5.92518H20.7528V5.18453ZM20.7528 4.44388H21.4935V5.18453H20.7528V4.44388ZM20.0122 4.44388H20.7528V5.18453H20.0122V4.44388ZM20.0122 5.18453H20.7528V5.92518H20.0122V5.18453ZM21.4935 4.44388H22.2341V5.18453H21.4935V4.44388ZM22.2341 4.44388H22.9748V5.18453H22.2341V4.44388ZM22.9748 4.44388H23.7154V5.18453H22.9748V4.44388ZM22.9748 5.18453H23.7154V5.92518H22.9748V5.18453ZM22.9748 5.92518H23.7154V6.66583H22.9748V5.92518ZM22.9748 6.66583H23.7154V7.40647H22.9748V6.66583ZM22.2341 6.66583H22.9748V7.40647H22.2341V6.66583ZM21.4935 6.66583H22.2341V7.40647H21.4935V6.66583ZM21.4935 5.92518H22.2341V6.66583H21.4935V5.92518ZM21.4935 5.18453H22.2341V5.92518H21.4935V5.18453ZM22.2341 5.18453H22.9748V5.92518H22.2341V5.18453ZM22.2341 5.92518H22.9748V6.66583H22.2341V5.92518ZM23.7154 5.92518H24.4561V6.66583H23.7154V5.92518ZM23.7154 5.18453H24.4561V5.92518H23.7154V5.18453ZM24.4561 5.18453H25.1967V5.92518H24.4561V5.18453ZM24.4561 5.92518H25.1967V6.66583H24.4561V5.92518ZM25.1967 5.92518H25.9374V6.66583H25.1967V5.92518ZM25.1967 6.66583H25.9374V7.40647H25.1967V6.66583ZM25.1967 7.40647H25.9374V8.14712H25.1967V7.40647ZM24.4561 7.40647H25.1967V8.14712H24.4561V7.40647ZM24.4561 6.66583H25.1967V7.40647H24.4561V6.66583ZM23.7154 6.66583H24.4561V7.40647H23.7154V6.66583ZM23.7154 7.40647H24.4561V8.14712H23.7154V7.40647ZM22.9748 7.40647H23.7154V8.14712H22.9748V7.40647ZM22.2341 7.40647H22.9748V8.14712H22.2341V7.40647ZM25.9374 7.40647H26.678V8.14712H25.9374V7.40647ZM25.9374 8.14712H26.678V8.88777H25.9374V8.14712ZM25.9374 8.88777H26.678V9.62842H25.9374V8.88777ZM25.9374 9.62842H26.678V10.3691H25.9374V9.62842ZM25.9374 10.3691H26.678V11.1097H25.9374V10.3691ZM25.9374 11.1097H26.678V11.8504H25.9374V11.1097ZM25.9374 11.8504H26.678V12.591H25.9374V11.8504ZM25.9374 12.591H26.678V13.3317H25.9374V12.591ZM25.9374 13.3317H26.678V14.0723H25.9374V13.3317ZM25.9374 14.0723H26.678V14.8129H25.9374V14.0723ZM25.1967 14.0723H25.9374V14.8129H25.1967V14.0723ZM25.1967 14.8129H25.9374V15.5536H25.1967V14.8129ZM25.9374 14.8129H26.678V15.5536H25.9374V14.8129ZM24.4561 14.8129H25.1967V15.5536H24.4561V14.8129ZM23.7154 14.8129H24.4561V15.5536H23.7154V14.8129ZM22.9748 14.8129H23.7154V15.5536H22.9748V14.8129ZM22.2341 14.8129H22.9748V15.5536H22.2341V14.8129ZM22.9748 14.0723H23.7154V14.8129H22.9748V14.0723ZM22.9748 13.3317H23.7154V14.0723H22.9748V13.3317ZM22.9748 12.591H23.7154V13.3317H22.9748V12.591ZM22.9748 11.8504H23.7154V12.591H22.9748V11.8504ZM22.9748 11.1097H23.7154V11.8504H22.9748V11.1097ZM22.9748 10.3691H23.7154V11.1097H22.9748V10.3691ZM22.9748 9.62842H23.7154V10.3691H22.9748V9.62842ZM22.9748 8.88777H23.7154V9.62842H22.9748V8.88777ZM22.9748 8.14712H23.7154V8.88777H22.9748V8.14712ZM23.7154 8.14712H24.4561V8.88777H23.7154V8.14712ZM24.4561 8.14712H25.1967V8.88777H24.4561V8.14712ZM25.1967 8.14712H25.9374V8.88777H25.1967V8.14712ZM25.1967 8.88777H25.9374V9.62842H25.1967V8.88777ZM25.1967 9.62842H25.9374V10.3691H25.1967V9.62842ZM25.1967 10.3691H25.9374V11.1097H25.1967V10.3691ZM25.1967 11.1097H25.9374V11.8504H25.1967V11.1097ZM25.1967 11.8504H25.9374V12.591H25.1967V11.8504ZM25.1967 12.591H25.9374V13.3317H25.1967V12.591ZM25.1967 13.3317H25.9374V14.0723H25.1967V13.3317ZM24.4561 14.0723H25.1967V14.8129H24.4561V14.0723ZM23.7154 14.0723H24.4561V14.8129H23.7154V14.0723ZM23.7154 13.3317H24.4561V14.0723H23.7154V13.3317ZM23.7154 12.591H24.4561V13.3317H23.7154V12.591ZM23.7154 11.8504H24.4561V12.591H23.7154V11.8504ZM23.7154 11.1097H24.4561V11.8504H23.7154V11.1097ZM24.4561 11.1097H25.1967V11.8504H24.4561V11.1097ZM24.4561 10.3691H25.1967V11.1097H24.4561V10.3691ZM24.4561 9.62842H25.1967V10.3691H24.4561V9.62842ZM24.4561 8.88777H25.1967V9.62842H24.4561V8.88777ZM23.7154 8.88777H24.4561V9.62842H23.7154V8.88777ZM23.7154 9.62842H24.4561V10.3691H23.7154V9.62842ZM23.7154 10.3691H24.4561V11.1097H23.7154V10.3691ZM24.4561 12.591H25.1967V13.3317H24.4561V12.591ZM24.4561 13.3317H25.1967V14.0723H24.4561V13.3317ZM24.4561 11.8504H25.1967V12.591H24.4561V11.8504ZM18.5309 15.5536H19.2715V16.2942H18.5309V15.5536ZM19.2715 17.7755H20.0122V18.5162H19.2715V17.7755ZM20.0122 17.7755H20.7528V18.5162H20.0122V17.7755ZM20.7528 17.7755H21.4935V18.5162H20.7528V17.7755ZM21.4935 17.7755H22.2341V18.5162H21.4935V17.7755ZM22.2341 17.7755H22.9748V18.5162H22.2341V17.7755ZM22.9748 17.7755H23.7154V18.5162H22.9748V17.7755ZM22.2341 17.0349H22.9748V17.7755H22.2341V17.0349ZM21.4935 17.0349H22.2341V17.7755H21.4935V17.0349ZM20.7528 17.0349H21.4935V17.7755H20.7528V17.0349ZM20.0122 17.0349H20.7528V17.7755H20.0122V17.0349ZM19.2715 17.0349H20.0122V17.7755H19.2715V17.0349ZM18.5309 17.0349H19.2715V17.7755H18.5309V17.0349ZM18.5309 16.2942H19.2715V17.0349H18.5309V16.2942ZM19.2715 16.2942H20.0122V17.0349H19.2715V16.2942ZM20.0122 16.2942H20.7528V17.0349H20.0122V16.2942ZM20.7528 16.2942H21.4935V17.0349H20.7528V16.2942ZM21.4935 16.2942H22.2341V17.0349H21.4935V16.2942ZM22.2341 16.2942H22.9748V17.0349H22.2341V16.2942ZM22.9748 17.0349H23.7154V17.7755H22.9748V17.0349ZM23.7154 17.0349H24.4561V17.7755H23.7154V17.0349ZM24.4561 17.0349H25.1967V17.7755H24.4561V17.0349ZM24.4561 16.2942H25.1967V17.0349H24.4561V16.2942ZM25.1967 16.2942H25.9374V17.0349H25.1967V16.2942ZM25.1967 15.5536H25.9374V16.2942H25.1967V15.5536ZM24.4561 15.5536H25.1967V16.2942H24.4561V15.5536ZM23.7154 15.5536H24.4561V16.2942H23.7154V15.5536ZM22.9748 15.5536H23.7154V16.2942H22.9748V15.5536ZM22.2341 15.5536H22.9748V16.2942H22.2341V15.5536ZM21.4935 15.5536H22.2341V16.2942H21.4935V15.5536ZM20.7528 15.5536H21.4935V16.2942H20.7528V15.5536ZM20.0122 15.5536H20.7528V16.2942H20.0122V15.5536ZM19.2715 15.5536H20.0122V16.2942H19.2715V15.5536ZM22.9748 16.2942H23.7154V17.0349H22.9748V16.2942ZM23.7154 16.2942H24.4561V17.0349H23.7154V16.2942ZM17.7902 16.2942H18.5309V17.0349H17.7902V16.2942ZM17.7902 15.5536H18.5309V16.2942H17.7902V15.5536ZM17.7902 14.8129H18.5309V15.5536H17.7902V14.8129ZM17.7902 14.0723H18.5309V14.8129H17.7902V14.0723ZM17.7902 13.3317H18.5309V14.0723H17.7902V13.3317ZM17.7902 12.591H18.5309V13.3317H17.7902V12.591ZM17.7902 11.8504H18.5309V12.591H17.7902V11.8504ZM17.7902 11.1097H18.5309V11.8504H17.7902V11.1097ZM17.7902 10.3691H18.5309V11.1097H17.7902V10.3691ZM17.7902 9.62842H18.5309V10.3691H17.7902V9.62842ZM17.7902 8.88777H18.5309V9.62842H17.7902V8.88777ZM17.7902 8.14712H18.5309V8.88777H17.7902V8.14712ZM17.7902 7.40647H18.5309V8.14712H17.7902V7.40647ZM17.0496 7.40647H17.7902V8.14712H17.0496V7.40647ZM17.0496 8.14712H17.7902V8.88777H17.0496V8.14712ZM17.0496 8.88777H17.7902V9.62842H17.0496V8.88777ZM17.0496 9.62842H17.7902V10.3691H17.0496V9.62842ZM17.0496 10.3691H17.7902V11.1097H17.0496V10.3691ZM17.0496 11.1097H17.7902V11.8504H17.0496V11.1097ZM17.0496 11.8504H17.7902V12.591H17.0496V11.8504ZM16.309 12.591H17.0496V13.3317H16.309V12.591ZM16.309 13.3317H17.0496V14.0723H16.309V13.3317ZM16.309 14.0723H17.0496V14.8129H16.309V14.0723ZM16.309 14.8129H17.0496V15.5536H16.309V14.8129ZM16.309 15.5536H17.0496V16.2942H16.309V15.5536ZM16.309 16.2942H17.0496V17.0349H16.309V16.2942ZM16.309 17.0349H17.0496V17.7755H16.309V17.0349ZM16.309 17.7755H17.0496V18.5162H16.309V17.7755ZM15.5683 17.7755H16.309V18.5162H15.5683V17.7755ZM14.8277 17.7755H15.5683V18.5162H14.8277V17.7755ZM14.8277 17.0349H15.5683V17.7755H14.8277V17.0349ZM14.8277 16.2942H15.5683V17.0349H14.8277V16.2942ZM14.8277 15.5536H15.5683V16.2942H14.8277V15.5536ZM14.8277 14.8129H15.5683V15.5536H14.8277V14.8129ZM14.8277 14.0723H15.5683V14.8129H14.8277V14.0723ZM14.8277 13.3317H15.5683V14.0723H14.8277V13.3317ZM14.8277 12.591H15.5683V13.3317H14.8277V12.591ZM15.5683 12.591H16.309V13.3317H15.5683V12.591ZM15.5683 11.8504H16.309V12.591H15.5683V11.8504ZM15.5683 13.3317H16.309V14.0723H15.5683V13.3317ZM15.5683 14.0723H16.309V14.8129H15.5683V14.0723ZM15.5683 14.8129H16.309V15.5536H15.5683V14.8129ZM15.5683 15.5536H16.309V16.2942H15.5683V15.5536ZM15.5683 16.2942H16.309V17.0349H15.5683V16.2942ZM15.5683 17.0349H16.309V17.7755H15.5683V17.0349ZM17.0496 16.2942H17.7902V17.0349H17.0496V16.2942ZM17.0496 15.5536H17.7902V16.2942H17.0496V15.5536ZM17.0496 14.8129H17.7902V15.5536H17.0496V14.8129ZM17.0496 14.0723H17.7902V14.8129H17.0496V14.0723ZM17.0496 13.3317H17.7902V14.0723H17.0496V13.3317ZM17.0496 12.591H17.7902V13.3317H17.0496V12.591ZM17.7902 18.5162H18.5309V19.2568H17.7902V18.5162ZM17.7902 19.2568H18.5309V19.9975H17.7902V19.2568ZM17.7902 19.9975H18.5309V20.7381H17.7902V19.9975ZM17.7902 20.7381H18.5309V21.4788H17.7902V20.7381ZM17.7902 21.4788H18.5309V22.2194H17.7902V21.4788ZM17.7902 22.2194H18.5309V22.9601H17.7902V22.2194ZM17.7902 5.18453H18.5309V5.92518H17.7902V5.18453ZM17.7902 6.66583H18.5309V7.40647H17.7902V6.66583ZM15.5683 18.5162H16.309V19.2568H15.5683V18.5162ZM15.5683 19.2568H16.309V19.9975H15.5683V19.2568ZM15.5683 19.9975H16.309V20.7381H15.5683V19.9975ZM15.5683 20.7381H16.309V21.4788H15.5683V20.7381ZM15.5683 21.4788H16.309V22.2194H15.5683V21.4788ZM15.5683 22.2194H16.309V22.9601H15.5683V22.2194ZM15.5683 5.18453H16.309V5.92518H15.5683V5.18453ZM15.5683 5.92518H16.309V6.66583H15.5683V5.92518ZM15.5683 6.66583H16.309V7.40647H15.5683V6.66583ZM15.5683 8.14712H16.309V8.88777H15.5683V8.14712ZM15.5683 8.88777H16.309V9.62842H15.5683V8.88777ZM15.5683 9.62842H16.309V10.3691H15.5683V9.62842ZM14.8277 10.3691H15.5683V11.1097H14.8277V10.3691ZM14.8277 11.1097H15.5683V11.8504H14.8277V11.1097ZM14.8277 11.8504H15.5683V12.591H14.8277V11.8504ZM14.8277 9.62842H15.5683V10.3691H14.8277V9.62842ZM14.8277 8.88777H15.5683V9.62842H14.8277V8.88777ZM14.8277 7.40647H15.5683V8.14712H14.8277V7.40647ZM14.8277 6.66583H15.5683V7.40647H14.8277V6.66583ZM14.8277 5.92518H15.5683V6.66583H14.8277V5.92518ZM14.8277 5.18453H15.5683V5.92518H14.8277V5.18453ZM14.8277 4.44388H15.5683V5.18453H14.8277V4.44388ZM14.8277 22.2194H15.5683V22.9601H14.8277V22.2194ZM14.8277 21.4788H15.5683V22.2194H14.8277V21.4788ZM15.5683 4.44388H16.309V5.18453H15.5683V4.44388ZM14.8277 20.7381H15.5683V21.4788H14.8277V20.7381ZM14.8277 19.9975H15.5683V20.7381H14.8277V19.9975ZM14.8277 19.2568H15.5683V19.9975H14.8277V19.2568ZM14.8277 18.5162H15.5683V19.2568H14.8277V18.5162ZM16.309 18.5162H17.0496V19.2568H16.309V18.5162ZM17.0496 18.5162H17.7902V19.2568H17.0496V18.5162ZM17.0496 19.2568H17.7902V19.9975H17.0496V19.2568ZM16.309 19.2568H17.0496V19.9975H16.309V19.2568ZM16.309 19.9975H17.0496V20.7381H16.309V19.9975ZM16.309 20.7381H17.0496V21.4788H16.309V20.7381ZM16.309 21.4788H17.0496V22.2194H16.309V21.4788ZM16.309 22.2194H17.0496V22.9601H16.309V22.2194ZM16.309 4.44388H17.0496V5.18453H16.309V4.44388ZM16.309 5.18453H17.0496V5.92518H16.309V5.18453ZM17.0496 5.92518H17.7902V6.66583H17.0496V5.92518ZM17.0496 6.66583H17.7902V7.40647H17.0496V6.66583ZM17.0496 5.18453H17.7902V5.92518H17.0496V5.18453ZM17.0496 4.44388H17.7902V5.18453H17.0496V4.44388ZM17.0496 22.2194H17.7902V22.9601H17.0496V22.2194ZM17.0496 21.4788H17.7902V22.2194H17.0496V21.4788ZM17.0496 20.7381H17.7902V21.4788H17.0496V20.7381ZM17.0496 19.9975H17.7902V20.7381H17.0496V19.9975ZM16.309 6.66583H17.0496V7.40647H16.309V6.66583ZM16.309 8.14712H17.0496V8.88777H16.309V8.14712ZM16.309 8.88777H17.0496V9.62842H16.309V8.88777ZM16.309 9.62842H17.0496V10.3691H16.309V9.62842ZM16.309 10.3691H17.0496V11.1097H16.309V10.3691ZM16.309 11.1097H17.0496V11.8504H16.309V11.1097ZM16.309 11.8504H17.0496V12.591H16.309V11.8504ZM15.5683 11.1097H16.309V11.8504H15.5683V11.1097ZM15.5683 10.3691H16.309V11.1097H15.5683V10.3691ZM17.7902 4.44388H18.5309V5.18453H17.7902V4.44388ZM14.8277 8.14712H15.5683V8.88777H14.8277V8.14712ZM17.7902 5.92518H18.5309V6.66583H17.7902V5.92518ZM16.309 5.92518H17.0496V6.66583H16.309V5.92518ZM16.309 7.40647H17.0496V8.14712H16.309V7.40647ZM15.5683 7.40647H16.309V8.14712H15.5683V7.40647ZM17.7902 17.0349H18.5309V17.7755H17.7902V17.0349ZM17.0496 17.0349H17.7902V17.7755H17.0496V17.0349ZM17.0496 17.7755H17.7902V18.5162H17.0496V17.7755ZM20.0122 4.44388V5.18453H19.2715V4.44388H20.0122ZM18.5309 17.7755V18.5162H17.7902V17.7755H18.5309ZM19.2715 7.40647V8.14712H18.5309V7.40647H19.2715ZM19.2715 17.7755V18.5162H18.5309V17.7755H19.2715Z" fill="#0A0A0A"/>
<path d="M32.6169 1.48129V2.22194H31.8763V1.48129H32.6169ZM32.6169 2.22194V2.96259H31.8763V2.22194H32.6169ZM32.6169 2.96259V3.70324H31.8763V2.96259H32.6169ZM32.6169 3.70324V4.44388H31.8763V3.70324H32.6169ZM32.6169 4.44388V5.18453H31.8763V4.44388H32.6169ZM32.6169 5.18453V5.92518H31.8763V5.18453H32.6169ZM32.6169 5.92518V6.66583H31.8763V5.92518H32.6169ZM32.6169 6.66583V7.40647H31.8763V6.66583H32.6169ZM33.3576 6.66583V7.40647H32.6169V6.66583H33.3576ZM34.0982 6.66583V7.40647H33.3576V6.66583H34.0982ZM34.8389 6.66583V7.40647H34.0982V6.66583H34.8389ZM35.5795 6.66583V7.40647H34.8389V6.66583H35.5795ZM32.6169 8.14712V8.88777H31.8763V8.14712H32.6169ZM31.8763 8.14712V8.88777H31.1356V8.14712H31.8763ZM31.8763 7.40647V8.14712H31.1356V7.40647H31.8763ZM32.6169 7.40647V8.14712H31.8763V7.40647H32.6169ZM32.6169 8.88777V9.62842H31.8763V8.88777H32.6169ZM31.8763 8.88777V9.62842H31.1356V8.88777H31.8763ZM31.1356 8.88777V9.62842H30.395V8.88777H31.1356ZM30.395 8.88777V9.62842H29.6543V8.88777H30.395ZM29.6543 8.88777V9.62842H28.9137V8.88777H29.6543ZM28.173 6.66583V7.40647H27.4324V6.66583H28.173ZM28.9137 6.66583V7.40647H28.173V6.66583H28.9137ZM29.6543 6.66583V7.40647H28.9137V6.66583H29.6543ZM30.395 6.66583V7.40647H29.6543V6.66583H30.395ZM31.1356 6.66583V7.40647H30.395V6.66583H31.1356ZM31.8763 6.66583V7.40647H31.1356V6.66583H31.8763ZM31.1356 8.14712V8.88777H30.395V8.14712H31.1356ZM31.1356 7.40647V8.14712H30.395V7.40647H31.1356ZM30.395 7.40647V8.14712H29.6543V7.40647H30.395ZM29.6543 7.40647V8.14712H28.9137V7.40647H29.6543ZM29.6543 8.14712V8.88777H28.9137V8.14712H29.6543ZM30.395 8.14712V8.88777H29.6543V8.14712H30.395ZM31.8763 2.22194V2.96259H31.1356V2.22194H31.8763ZM31.8763 2.96259V3.70324H31.1356V2.96259H31.8763ZM31.1356 2.96259V3.70324H30.395V2.96259H31.1356ZM31.1356 3.70324V4.44388H30.395V3.70324H31.1356ZM31.1356 4.44388V5.18453H30.395V4.44388H31.1356ZM30.395 3.70324V4.44388H29.6543V3.70324H30.395ZM30.395 4.44388V5.18453H29.6543V4.44388H30.395ZM29.6543 4.44388V5.18453H28.9137V4.44388H29.6543ZM29.6543 5.18453V5.92518H28.9137V5.18453H29.6543ZM29.6543 5.92518V6.66583H28.9137V5.92518H29.6543ZM31.1356 5.92518V6.66583H30.395V5.92518H31.1356ZM31.8763 5.92518V6.66583H31.1356V5.92518H31.8763ZM31.8763 5.18453V5.92518H31.1356V5.18453H31.8763ZM31.8763 4.44388V5.18453H31.1356V4.44388H31.8763ZM31.8763 3.70324V4.44388H31.1356V3.70324H31.8763ZM31.1356 5.18453V5.92518H30.395V5.18453H31.1356ZM30.395 5.92518V6.66583H29.6543V5.92518H30.395ZM30.395 5.18453V5.92518H29.6543V5.18453H30.395ZM35.5795 15.5536V16.2942H34.8389V15.5536H35.5795ZM35.5795 16.2942V17.0349H34.8389V16.2942H35.5795ZM35.5795 17.7755V18.5162H34.8389V17.7755H35.5795ZM34.8389 17.7755V18.5162H34.0982V17.7755H34.8389ZM34.0982 17.7755V18.5162H33.3576V17.7755H34.0982ZM33.3576 17.7755V18.5162H32.6169V17.7755H33.3576ZM32.6169 17.7755V18.5162H31.8763V17.7755H32.6169ZM32.6169 17.0349V17.7755H31.8763V17.0349H32.6169ZM31.8763 17.0349V17.7755H31.1356V17.0349H31.8763ZM31.1356 17.0349V17.7755H30.395V17.0349H31.1356ZM31.1356 16.2942V17.0349H30.395V16.2942H31.1356ZM30.395 16.2942V17.0349H29.6543V16.2942H30.395ZM30.395 15.5536V16.2942H29.6543V15.5536H30.395ZM30.395 14.8129V15.5536H29.6543V14.8129H30.395ZM29.6543 14.8129V15.5536H28.9137V14.8129H29.6543ZM29.6543 14.0723V14.8129H28.9137V14.0723H29.6543ZM29.6543 13.3317V14.0723H28.9137V13.3317H29.6543ZM29.6543 12.591V13.3317H28.9137V12.591H29.6543ZM29.6543 11.8504V12.591H28.9137V11.8504H29.6543ZM29.6543 11.1097V11.8504H28.9137V11.1097H29.6543ZM29.6543 10.3691V11.1097H28.9137V10.3691H29.6543ZM29.6543 9.62842V10.3691H28.9137V9.62842H29.6543ZM30.395 9.62842V10.3691H29.6543V9.62842H30.395ZM31.1356 9.62842V10.3691H30.395V9.62842H31.1356ZM31.8763 9.62842V10.3691H31.1356V9.62842H31.8763ZM32.6169 9.62842V10.3691H31.8763V9.62842H32.6169ZM32.6169 10.3691V11.1097H31.8763V10.3691H32.6169ZM32.6169 11.1097V11.8504H31.8763V11.1097H32.6169ZM32.6169 11.8504V12.591H31.8763V11.8504H32.6169ZM32.6169 12.591V13.3317H31.8763V12.591H32.6169ZM32.6169 13.3317V14.0723H31.8763V13.3317H32.6169ZM32.6169 14.0723V14.8129H31.8763V14.0723H32.6169ZM32.6169 14.8129V15.5536H31.8763V14.8129H32.6169ZM33.3576 14.8129V15.5536H32.6169V14.8129H33.3576ZM33.3576 15.5536V16.2942H32.6169V15.5536H33.3576ZM34.0982 15.5536V16.2942H33.3576V15.5536H34.0982ZM34.0982 16.2942V17.0349H33.3576V16.2942H34.0982ZM34.8389 16.2942V17.0349H34.0982V16.2942H34.8389ZM34.8389 15.5536V16.2942H34.0982V15.5536H34.8389ZM35.5795 17.0349V17.7755H34.8389V17.0349H35.5795ZM34.8389 17.0349V17.7755H34.0982V17.0349H34.8389ZM34.0982 17.0349V17.7755H33.3576V17.0349H34.0982ZM33.3576 17.0349V17.7755H32.6169V17.0349H33.3576ZM33.3576 16.2942V17.0349H32.6169V16.2942H33.3576ZM32.6169 16.2942V17.0349H31.8763V16.2942H32.6169ZM32.6169 15.5536V16.2942H31.8763V15.5536H32.6169ZM31.8763 15.5536V16.2942H31.1356V15.5536H31.8763ZM31.8763 16.2942V17.0349H31.1356V16.2942H31.8763ZM31.1356 15.5536V16.2942H30.395V15.5536H31.1356ZM31.8763 14.8129V15.5536H31.1356V14.8129H31.8763ZM31.8763 14.0723V14.8129H31.1356V14.0723H31.8763ZM31.1356 14.8129V15.5536H30.395V14.8129H31.1356ZM31.1356 14.0723V14.8129H30.395V14.0723H31.1356ZM31.8763 13.3317V14.0723H31.1356V13.3317H31.8763ZM31.8763 12.591V13.3317H31.1356V12.591H31.8763ZM31.8763 11.8504V12.591H31.1356V11.8504H31.8763ZM31.8763 11.1097V11.8504H31.1356V11.1097H31.8763ZM31.8763 10.3691V11.1097H31.1356V10.3691H31.8763ZM31.1356 10.3691V11.1097H30.395V10.3691H31.1356ZM30.395 10.3691V11.1097H29.6543V10.3691H30.395ZM30.395 11.1097V11.8504H29.6543V11.1097H30.395ZM30.395 11.8504V12.591H29.6543V11.8504H30.395ZM30.395 12.591V13.3317H29.6543V12.591H30.395ZM30.395 13.3317V14.0723H29.6543V13.3317H30.395ZM30.395 14.0723V14.8129H29.6543V14.0723H30.395ZM31.1356 13.3317V14.0723H30.395V13.3317H31.1356ZM31.1356 12.591V13.3317H30.395V12.591H31.1356ZM31.1356 11.8504V12.591H30.395V11.8504H31.1356ZM31.1356 11.1097V11.8504H30.395V11.1097H31.1356ZM35.5795 5.18453V5.92518H34.8389V5.18453H35.5795ZM34.8389 5.18453V5.92518H34.0982V5.18453H34.8389ZM34.8389 5.92518V6.66583H34.0982V5.92518H34.8389ZM35.5795 5.92518V6.66583H34.8389V5.92518H35.5795ZM34.0982 5.92518V6.66583H33.3576V5.92518H34.0982ZM33.3576 5.92518V6.66583H32.6169V5.92518H33.3576ZM33.3576 5.18453V5.92518H32.6169V5.18453H33.3576ZM34.0982 5.18453V5.92518H33.3576V5.18453H34.0982ZM29.6543 3.70324V4.44388H28.9137V3.70324H29.6543ZM30.395 2.96259V3.70324H29.6543V2.96259H30.395ZM31.1356 2.22194V2.96259H30.395V2.22194H31.1356ZM31.8763 1.48129V2.22194H31.1356V1.48129H31.8763ZM28.9137 5.18453V5.92518H28.173V5.18453H28.9137ZM28.9137 5.92518V6.66583H28.173V5.92518H28.9137ZM28.173 5.92518V6.66583H27.4324V5.92518H28.173ZM28.173 5.18453V5.92518H27.4324V5.18453H28.173ZM32.6169 0.740648V1.48129H31.8763V0.740648H32.6169ZM28.173 7.40647V8.14712H27.4324V7.40647H28.173ZM28.9137 7.40647V8.14712H28.173V7.40647H28.9137ZM33.3576 7.40647V8.14712H32.6169V7.40647H33.3576ZM34.0982 7.40647V8.14712H33.3576V7.40647H34.0982ZM34.8389 7.40647V8.14712H34.0982V7.40647H34.8389ZM35.5795 7.40647V8.14712H34.8389V7.40647H35.5795Z" fill="#0A0A0A"/>
<path d="M38.5508 0V0.740648H37.8101V0H38.5508ZM38.5508 0.740648V1.48129H37.8101V0.740648H38.5508ZM38.5508 1.48129V2.22194H37.8101V1.48129H38.5508ZM40.7727 0V0.740648H40.0321V0H40.7727ZM40.7727 0.740648V1.48129H40.0321V0.740648H40.7727ZM40.7727 1.48129V2.22194H40.0321V1.48129H40.7727ZM41.5134 1.48129V2.22194H40.7727V1.48129H41.5134ZM41.5134 0.740648V1.48129H40.7727V0.740648H41.5134ZM41.5134 0V0.740648H40.7727V0H41.5134ZM40.0321 0V0.740648H39.2914V0H40.0321ZM39.2914 0V0.740648H38.5508V0H39.2914ZM39.2914 0.740648V1.48129H38.5508V0.740648H39.2914ZM40.0321 0.740648V1.48129H39.2914V0.740648H40.0321ZM40.0321 1.48129V2.22194H39.2914V1.48129H40.0321ZM39.2914 1.48129V2.22194H38.5508V1.48129H39.2914ZM38.5508 2.22194V2.96259H37.8101V2.22194H38.5508ZM39.2914 2.22194V2.96259H38.5508V2.22194H39.2914ZM40.0321 2.22194V2.96259H39.2914V2.22194H40.0321ZM40.7727 2.22194V2.96259H40.0321V2.22194H40.7727ZM41.5134 2.22194V2.96259H40.7727V2.22194H41.5134ZM38.5508 17.7755V18.5162H37.8101V17.7755H38.5508ZM38.5508 17.0349V17.7755H37.8101V17.0349H38.5508ZM38.5508 16.2942V17.0349H37.8101V16.2942H38.5508ZM38.5508 15.5536V16.2942H37.8101V15.5536H38.5508ZM38.5508 14.8129V15.5536H37.8101V14.8129H38.5508ZM38.5508 14.0723V14.8129H37.8101V14.0723H38.5508ZM38.5508 13.3317V14.0723H37.8101V13.3317H38.5508ZM38.5508 12.591V13.3317H37.8101V12.591H38.5508ZM38.5508 11.8504V12.591H37.8101V11.8504H38.5508ZM38.5508 11.1097V11.8504H37.8101V11.1097H38.5508ZM38.5508 10.3691V11.1097H37.8101V10.3691H38.5508ZM38.5508 9.62842V10.3691H37.8101V9.62842H38.5508ZM38.5508 8.88777V9.62842H37.8101V8.88777H38.5508ZM38.5508 8.14712V8.88777H37.8101V8.14712H38.5508ZM38.5508 7.40647V8.14712H37.8101V7.40647H38.5508ZM39.2914 7.40647V8.14712H38.5508V7.40647H39.2914ZM39.2914 8.14712V8.88777H38.5508V8.14712H39.2914ZM39.2914 8.88777V9.62842H38.5508V8.88777H39.2914ZM39.2914 9.62842V10.3691H38.5508V9.62842H39.2914ZM39.2914 10.3691V11.1097H38.5508V10.3691H39.2914ZM39.2914 11.1097V11.8504H38.5508V11.1097H39.2914ZM39.2914 11.8504V12.591H38.5508V11.8504H39.2914ZM40.0321 12.591V13.3317H39.2914V12.591H40.0321ZM40.0321 13.3317V14.0723H39.2914V13.3317H40.0321ZM40.0321 14.0723V14.8129H39.2914V14.0723H40.0321ZM40.0321 14.8129V15.5536H39.2914V14.8129H40.0321ZM40.0321 15.5536V16.2942H39.2914V15.5536H40.0321ZM40.0321 16.2942V17.0349H39.2914V16.2942H40.0321ZM40.0321 17.0349V17.7755H39.2914V17.0349H40.0321ZM40.0321 17.7755V18.5162H39.2914V17.7755H40.0321ZM40.7727 17.7755V18.5162H40.0321V17.7755H40.7727ZM41.5134 17.7755V18.5162H40.7727V17.7755H41.5134ZM41.5134 17.0349V17.7755H40.7727V17.0349H41.5134ZM41.5134 16.2942V17.0349H40.7727V16.2942H41.5134ZM41.5134 15.5536V16.2942H40.7727V15.5536H41.5134ZM41.5134 14.8129V15.5536H40.7727V14.8129H41.5134ZM41.5134 14.0723V14.8129H40.7727V14.0723H41.5134ZM41.5134 13.3317V14.0723H40.7727V13.3317H41.5134ZM41.5134 12.591V13.3317H40.7727V12.591H41.5134ZM40.7727 12.591V13.3317H40.0321V12.591H40.7727ZM40.7727 11.8504V12.591H40.0321V11.8504H40.7727ZM40.7727 13.3317V14.0723H40.0321V13.3317H40.7727ZM40.7727 14.0723V14.8129H40.0321V14.0723H40.7727ZM40.7727 14.8129V15.5536H40.0321V14.8129H40.7727ZM40.7727 15.5536V16.2942H40.0321V15.5536H40.7727ZM40.7727 16.2942V17.0349H40.0321V16.2942H40.7727ZM40.7727 17.0349V17.7755H40.0321V17.0349H40.7727ZM39.2914 17.7755V18.5162H38.5508V17.7755H39.2914ZM39.2914 17.0349V17.7755H38.5508V17.0349H39.2914ZM39.2914 16.2942V17.0349H38.5508V16.2942H39.2914ZM39.2914 15.5536V16.2942H38.5508V15.5536H39.2914ZM39.2914 14.8129V15.5536H38.5508V14.8129H39.2914ZM39.2914 14.0723V14.8129H38.5508V14.0723H39.2914ZM39.2914 13.3317V14.0723H38.5508V13.3317H39.2914ZM39.2914 12.591V13.3317H38.5508V12.591H39.2914ZM38.5508 5.92518V6.66583H37.8101V5.92518H38.5508ZM38.5508 6.66583V7.40647H37.8101V6.66583H38.5508ZM40.7727 5.92518V6.66583H40.0321V5.92518H40.7727ZM40.7727 6.66583V7.40647H40.0321V6.66583H40.7727ZM40.7727 7.40647V8.14712H40.0321V7.40647H40.7727ZM40.7727 8.14712V8.88777H40.0321V8.14712H40.7727ZM40.7727 8.88777V9.62842H40.0321V8.88777H40.7727ZM40.7727 9.62842V10.3691H40.0321V9.62842H40.7727ZM41.5134 10.3691V11.1097H40.7727V10.3691H41.5134ZM41.5134 11.1097V11.8504H40.7727V11.1097H41.5134ZM41.5134 11.8504V12.591H40.7727V11.8504H41.5134ZM41.5134 9.62842V10.3691H40.7727V9.62842H41.5134ZM41.5134 8.88777V9.62842H40.7727V8.88777H41.5134ZM41.5134 8.14712V8.88777H40.7727V8.14712H41.5134ZM41.5134 7.40647V8.14712H40.7727V7.40647H41.5134ZM41.5134 6.66583V7.40647H40.7727V6.66583H41.5134ZM41.5134 5.92518V6.66583H40.7727V5.92518H41.5134ZM39.2914 5.92518V6.66583H38.5508V5.92518H39.2914ZM39.2914 6.66583V7.40647H38.5508V6.66583H39.2914ZM40.0321 5.92518V6.66583H39.2914V5.92518H40.0321ZM40.0321 6.66583V7.40647H39.2914V6.66583H40.0321ZM40.0321 7.40647V8.14712H39.2914V7.40647H40.0321ZM40.0321 8.14712V8.88777H39.2914V8.14712H40.0321ZM40.0321 8.88777V9.62842H39.2914V8.88777H40.0321ZM40.0321 9.62842V10.3691H39.2914V9.62842H40.0321ZM40.0321 10.3691V11.1097H39.2914V10.3691H40.0321ZM40.0321 11.1097V11.8504H39.2914V11.1097H40.0321ZM40.0321 11.8504V12.591H39.2914V11.8504H40.0321ZM40.7727 11.1097V11.8504H40.0321V11.1097H40.7727ZM40.7727 10.3691V11.1097H40.0321V10.3691H40.7727ZM40.7727 5.18453V5.92518H40.0321V5.18453H40.7727ZM41.5134 5.18453V5.92518H40.7727V5.18453H41.5134ZM40.0321 5.18453V5.92518H39.2914V5.18453H40.0321ZM39.2914 5.18453V5.92518H38.5508V5.18453H39.2914ZM38.5508 5.18453V5.92518H37.8101V5.18453H38.5508Z" fill="#0A0A0A"/>
<path d="M48.1857 1.48129V2.22194H47.4451V1.48129H48.1857ZM48.1857 2.22194V2.96259H47.4451V2.22194H48.1857ZM48.1857 2.96259V3.70324H47.4451V2.96259H48.1857ZM48.1857 3.70324V4.44388H47.4451V3.70324H48.1857ZM48.1857 4.44388V5.18453H47.4451V4.44388H48.1857ZM48.1857 5.18453V5.92518H47.4451V5.18453H48.1857ZM48.1857 5.92518V6.66583H47.4451V5.92518H48.1857ZM48.1857 6.66583V7.40647H47.4451V6.66583H48.1857ZM48.9264 6.66583V7.40647H48.1857V6.66583H48.9264ZM49.667 6.66583V7.40647H48.9264V6.66583H49.667ZM50.4077 6.66583V7.40647H49.667V6.66583H50.4077ZM51.1483 6.66583V7.40647H50.4077V6.66583H51.1483ZM48.1857 8.14712V8.88777H47.4451V8.14712H48.1857ZM47.4451 8.14712V8.88777H46.7044V8.14712H47.4451ZM47.4451 7.40647V8.14712H46.7044V7.40647H47.4451ZM48.1857 7.40647V8.14712H47.4451V7.40647H48.1857ZM48.1857 8.88777V9.62842H47.4451V8.88777H48.1857ZM47.4451 8.88777V9.62842H46.7044V8.88777H47.4451ZM46.7044 8.88777V9.62842H45.9638V8.88777H46.7044ZM45.9638 8.88777V9.62842H45.2231V8.88777H45.9638ZM45.2231 8.88777V9.62842H44.4825V8.88777H45.2231ZM43.7418 6.66583V7.40647H43.0012V6.66583H43.7418ZM44.4825 6.66583V7.40647H43.7418V6.66583H44.4825ZM45.2231 6.66583V7.40647H44.4825V6.66583H45.2231ZM45.9638 6.66583V7.40647H45.2231V6.66583H45.9638ZM46.7044 6.66583V7.40647H45.9638V6.66583H46.7044ZM47.4451 6.66583V7.40647H46.7044V6.66583H47.4451ZM46.7044 8.14712V8.88777H45.9638V8.14712H46.7044ZM46.7044 7.40647V8.14712H45.9638V7.40647H46.7044ZM45.9638 7.40647V8.14712H45.2231V7.40647H45.9638ZM45.2231 7.40647V8.14712H44.4825V7.40647H45.2231ZM45.2231 8.14712V8.88777H44.4825V8.14712H45.2231ZM45.9638 8.14712V8.88777H45.2231V8.14712H45.9638ZM47.4451 2.22194V2.96259H46.7044V2.22194H47.4451ZM47.4451 2.96259V3.70324H46.7044V2.96259H47.4451ZM46.7044 2.96259V3.70324H45.9638V2.96259H46.7044ZM46.7044 3.70324V4.44388H45.9638V3.70324H46.7044ZM46.7044 4.44388V5.18453H45.9638V4.44388H46.7044ZM45.9638 3.70324V4.44388H45.2231V3.70324H45.9638ZM45.9638 4.44388V5.18453H45.2231V4.44388H45.9638ZM45.2231 4.44388V5.18453H44.4825V4.44388H45.2231ZM45.2231 5.18453V5.92518H44.4825V5.18453H45.2231ZM45.2231 5.92518V6.66583H44.4825V5.92518H45.2231ZM46.7044 5.92518V6.66583H45.9638V5.92518H46.7044ZM47.4451 5.92518V6.66583H46.7044V5.92518H47.4451ZM47.4451 5.18453V5.92518H46.7044V5.18453H47.4451ZM47.4451 4.44388V5.18453H46.7044V4.44388H47.4451ZM47.4451 3.70324V4.44388H46.7044V3.70324H47.4451ZM46.7044 5.18453V5.92518H45.9638V5.18453H46.7044ZM45.9638 5.92518V6.66583H45.2231V5.92518H45.9638ZM45.9638 5.18453V5.92518H45.2231V5.18453H45.9638ZM51.1483 15.5536V16.2942H50.4077V15.5536H51.1483ZM51.1483 16.2942V17.0349H50.4077V16.2942H51.1483ZM51.1483 17.7755V18.5162H50.4077V17.7755H51.1483ZM50.4077 17.7755V18.5162H49.667V17.7755H50.4077ZM49.667 17.7755V18.5162H48.9264V17.7755H49.667ZM48.9264 17.7755V18.5162H48.1857V17.7755H48.9264ZM48.1857 17.7755V18.5162H47.4451V17.7755H48.1857ZM48.1857 17.0349V17.7755H47.4451V17.0349H48.1857ZM47.4451 17.0349V17.7755H46.7044V17.0349H47.4451ZM46.7044 17.0349V17.7755H45.9638V17.0349H46.7044ZM46.7044 16.2942V17.0349H45.9638V16.2942H46.7044ZM45.9638 16.2942V17.0349H45.2231V16.2942H45.9638ZM45.9638 15.5536V16.2942H45.2231V15.5536H45.9638ZM45.9638 14.8129V15.5536H45.2231V14.8129H45.9638ZM45.2231 14.8129V15.5536H44.4825V14.8129H45.2231ZM45.2231 14.0723V14.8129H44.4825V14.0723H45.2231ZM45.2231 13.3317V14.0723H44.4825V13.3317H45.2231ZM45.2231 12.591V13.3317H44.4825V12.591H45.2231ZM45.2231 11.8504V12.591H44.4825V11.8504H45.2231ZM45.2231 11.1097V11.8504H44.4825V11.1097H45.2231ZM45.2231 10.3691V11.1097H44.4825V10.3691H45.2231ZM45.2231 9.62842V10.3691H44.4825V9.62842H45.2231ZM45.9638 9.62842V10.3691H45.2231V9.62842H45.9638ZM46.7044 9.62842V10.3691H45.9638V9.62842H46.7044ZM47.4451 9.62842V10.3691H46.7044V9.62842H47.4451ZM48.1857 9.62842V10.3691H47.4451V9.62842H48.1857ZM48.1857 10.3691V11.1097H47.4451V10.3691H48.1857ZM48.1857 11.1097V11.8504H47.4451V11.1097H48.1857ZM48.1857 11.8504V12.591H47.4451V11.8504H48.1857ZM48.1857 12.591V13.3317H47.4451V12.591H48.1857ZM48.1857 13.3317V14.0723H47.4451V13.3317H48.1857ZM48.1857 14.0723V14.8129H47.4451V14.0723H48.1857ZM48.1857 14.8129V15.5536H47.4451V14.8129H48.1857ZM48.9264 14.8129V15.5536H48.1857V14.8129H48.9264ZM48.9264 15.5536V16.2942H48.1857V15.5536H48.9264ZM49.667 15.5536V16.2942H48.9264V15.5536H49.667ZM49.667 16.2942V17.0349H48.9264V16.2942H49.667ZM50.4077 16.2942V17.0349H49.667V16.2942H50.4077ZM50.4077 15.5536V16.2942H49.667V15.5536H50.4077ZM51.1483 17.0349V17.7755H50.4077V17.0349H51.1483ZM50.4077 17.0349V17.7755H49.667V17.0349H50.4077ZM49.667 17.0349V17.7755H48.9264V17.0349H49.667ZM48.9264 17.0349V17.7755H48.1857V17.0349H48.9264ZM48.9264 16.2942V17.0349H48.1857V16.2942H48.9264ZM48.1857 16.2942V17.0349H47.4451V16.2942H48.1857ZM48.1857 15.5536V16.2942H47.4451V15.5536H48.1857ZM47.4451 15.5536V16.2942H46.7044V15.5536H47.4451ZM47.4451 16.2942V17.0349H46.7044V16.2942H47.4451ZM46.7044 15.5536V16.2942H45.9638V15.5536H46.7044ZM47.4451 14.8129V15.5536H46.7044V14.8129H47.4451ZM47.4451 14.0723V14.8129H46.7044V14.0723H47.4451ZM46.7044 14.8129V15.5536H45.9638V14.8129H46.7044ZM46.7044 14.0723V14.8129H45.9638V14.0723H46.7044ZM47.4451 13.3317V14.0723H46.7044V13.3317H47.4451ZM47.4451 12.591V13.3317H46.7044V12.591H47.4451ZM47.4451 11.8504V12.591H46.7044V11.8504H47.4451ZM47.4451 11.1097V11.8504H46.7044V11.1097H47.4451ZM47.4451 10.3691V11.1097H46.7044V10.3691H47.4451ZM46.7044 10.3691V11.1097H45.9638V10.3691H46.7044ZM45.9638 10.3691V11.1097H45.2231V10.3691H45.9638ZM45.9638 11.1097V11.8504H45.2231V11.1097H45.9638ZM45.9638 11.8504V12.591H45.2231V11.8504H45.9638ZM45.9638 12.591V13.3317H45.2231V12.591H45.9638ZM45.9638 13.3317V14.0723H45.2231V13.3317H45.9638ZM45.9638 14.0723V14.8129H45.2231V14.0723H45.9638ZM46.7044 13.3317V14.0723H45.9638V13.3317H46.7044ZM46.7044 12.591V13.3317H45.9638V12.591H46.7044ZM46.7044 11.8504V12.591H45.9638V11.8504H46.7044ZM46.7044 11.1097V11.8504H45.9638V11.1097H46.7044ZM51.1483 5.18453V5.92518H50.4077V5.18453H51.1483ZM50.4077 5.18453V5.92518H49.667V5.18453H50.4077ZM50.4077 5.92518V6.66583H49.667V5.92518H50.4077ZM51.1483 5.92518V6.66583H50.4077V5.92518H51.1483ZM49.667 5.92518V6.66583H48.9264V5.92518H49.667ZM48.9264 5.92518V6.66583H48.1857V5.92518H48.9264ZM48.9264 5.18453V5.92518H48.1857V5.18453H48.9264ZM49.667 5.18453V5.92518H48.9264V5.18453H49.667ZM45.2231 3.70324V4.44388H44.4825V3.70324H45.2231ZM45.9638 2.96259V3.70324H45.2231V2.96259H45.9638ZM46.7044 2.22194V2.96259H45.9638V2.22194H46.7044ZM47.4451 1.48129V2.22194H46.7044V1.48129H47.4451ZM44.4825 5.18453V5.92518H43.7418V5.18453H44.4825ZM44.4825 5.92518V6.66583H43.7418V5.92518H44.4825ZM43.7418 5.92518V6.66583H43.0012V5.92518H43.7418ZM43.7418 5.18453V5.92518H43.0012V5.18453H43.7418ZM48.1857 0.740648V1.48129H47.4451V0.740648H48.1857ZM43.7418 7.40647V8.14712H43.0012V7.40647H43.7418ZM44.4825 7.40647V8.14712H43.7418V7.40647H44.4825ZM48.9264 7.40647V8.14712H48.1857V7.40647H48.9264ZM49.667 7.40647V8.14712H48.9264V7.40647H49.667ZM50.4077 7.40647V8.14712H49.667V7.40647H50.4077ZM51.1483 7.40647V8.14712H50.4077V7.40647H51.1483Z" fill="#0A0A0A"/>
<path d="M63.748 5.18453V4.44388H64.4886V5.18453H63.748ZM63.748 5.92518V5.18453H64.4886V5.92518H63.748ZM63.748 6.66583V5.92518H64.4886V6.66583H63.748ZM63.748 7.40647V6.66583H64.4886V7.40647H63.748ZM63.748 8.14712V7.40647H64.4886V8.14712H63.748ZM63.748 8.88777V8.14712H64.4886V8.88777H63.748ZM63.748 9.62842V8.88777H64.4886V9.62842H63.748ZM63.748 10.3691V9.62842H64.4886V10.3691H63.748ZM63.748 11.1097V10.3691H64.4886V11.1097H63.748ZM63.748 11.8504V11.1097H64.4886V11.8504H63.748ZM63.748 12.591V11.8504H64.4886V12.591H63.748ZM63.748 13.3317V12.591H64.4886V13.3317H63.748ZM63.748 14.0723V13.3317H64.4886V14.0723H63.748ZM63.748 14.8129V14.0723H64.4886V14.8129H63.748ZM63.748 15.5536V14.8129H64.4886V15.5536H63.748ZM63.0073 15.5536V14.8129H63.748V15.5536H63.0073ZM63.0073 14.8129V14.0723H63.748V14.8129H63.0073ZM63.0073 14.0723V13.3317H63.748V14.0723H63.0073ZM63.0073 13.3317V12.591H63.748V13.3317H63.0073ZM63.0073 12.591V11.8504H63.748V12.591H63.0073ZM63.0073 11.8504V11.1097H63.748V11.8504H63.0073ZM63.0073 11.1097V10.3691H63.748V11.1097H63.0073ZM62.2667 10.3691V9.62842H63.0073V10.3691H62.2667ZM62.2667 9.62842V8.88777H63.0073V9.62842H62.2667ZM62.2667 8.88777V8.14712H63.0073V8.88777H62.2667ZM62.2667 8.14712V7.40647H63.0073V8.14712H62.2667ZM62.2667 7.40647V6.66583H63.0073V7.40647H62.2667ZM62.2667 6.66583V5.92518H63.0073V6.66583H62.2667ZM62.2667 5.92518V5.18453H63.0073V5.92518H62.2667ZM62.2667 5.18453V4.44388H63.0073V5.18453H62.2667ZM61.526 5.18453V4.44388H62.2667V5.18453H61.526ZM60.7854 5.18453V4.44388H61.526V5.18453H60.7854ZM60.7854 5.92518V5.18453H61.526V5.92518H60.7854ZM60.7854 6.66583V5.92518H61.526V6.66583H60.7854ZM60.7854 7.40647V6.66583H61.526V7.40647H60.7854ZM60.7854 8.14712V7.40647H61.526V8.14712H60.7854ZM60.7854 8.88777V8.14712H61.526V8.88777H60.7854ZM60.7854 9.62842V8.88777H61.526V9.62842H60.7854ZM60.7854 10.3691V9.62842H61.526V10.3691H60.7854ZM61.526 10.3691V9.62842H62.2667V10.3691H61.526ZM61.526 11.1097V10.3691H62.2667V11.1097H61.526ZM61.526 9.62842V8.88777H62.2667V9.62842H61.526ZM61.526 8.88777V8.14712H62.2667V8.88777H61.526ZM61.526 8.14712V7.40647H62.2667V8.14712H61.526ZM61.526 7.40647V6.66583H62.2667V7.40647H61.526ZM61.526 6.66583V5.92518H62.2667V6.66583H61.526ZM61.526 5.92518V5.18453H62.2667V5.92518H61.526ZM63.0073 5.18453V4.44388H63.748V5.18453H63.0073ZM63.0073 5.92518V5.18453H63.748V5.92518H63.0073ZM63.0073 6.66583V5.92518H63.748V6.66583H63.0073ZM63.0073 7.40647V6.66583H63.748V7.40647H63.0073ZM63.0073 8.14712V7.40647H63.748V8.14712H63.0073ZM63.0073 8.88777V8.14712H63.748V8.88777H63.0073ZM63.0073 9.62842V8.88777H63.748V9.62842H63.0073ZM63.0073 10.3691V9.62842H63.748V10.3691H63.0073ZM63.748 18.5162V17.7755H64.4886V18.5162H63.748ZM63.748 17.7755V17.0349H64.4886V17.7755H63.748ZM63.748 17.0349V16.2942H64.4886V17.0349H63.748ZM63.748 16.2942V15.5536H64.4886V16.2942H63.748ZM61.526 17.7755V17.0349H62.2667V17.7755H61.526ZM61.526 17.0349V16.2942H62.2667V17.0349H61.526ZM61.526 16.2942V15.5536H62.2667V16.2942H61.526ZM61.526 15.5536V14.8129H62.2667V15.5536H61.526ZM61.526 14.8129V14.0723H62.2667V14.8129H61.526ZM61.526 14.0723V13.3317H62.2667V14.0723H61.526ZM61.526 13.3317V12.591H62.2667V13.3317H61.526ZM60.7854 12.591V11.8504H61.526V12.591H60.7854ZM60.7854 11.8504V11.1097H61.526V11.8504H60.7854ZM60.7854 11.1097V10.3691H61.526V11.1097H60.7854ZM60.7854 13.3317V12.591H61.526V13.3317H60.7854ZM60.7854 14.0723V13.3317H61.526V14.0723H60.7854ZM60.7854 14.8129V14.0723H61.526V14.8129H60.7854ZM60.7854 15.5536V14.8129H61.526V15.5536H60.7854ZM60.7854 16.2942V15.5536H61.526V16.2942H60.7854ZM60.7854 17.0349V16.2942H61.526V17.0349H60.7854ZM60.7854 17.7755V17.0349H61.526V17.7755H60.7854ZM60.7854 18.5162V17.7755H61.526V18.5162H60.7854ZM61.526 18.5162V17.7755H62.2667V18.5162H61.526ZM62.2667 18.5162V17.7755H63.0073V18.5162H62.2667ZM62.2667 17.7755V17.0349H63.0073V17.7755H62.2667ZM63.0073 17.0349V16.2942H63.748V17.0349H63.0073ZM63.0073 16.2942V15.5536H63.748V16.2942H63.0073ZM63.0073 17.7755V17.0349H63.748V17.7755H63.0073ZM63.0073 18.5162V17.7755H63.748V18.5162H63.0073ZM62.2667 17.0349V16.2942H63.0073V17.0349H62.2667ZM62.2667 16.2942V15.5536H63.0073V16.2942H62.2667ZM62.2667 15.5536V14.8129H63.0073V15.5536H62.2667ZM62.2667 14.8129V14.0723H63.0073V14.8129H62.2667ZM62.2667 14.0723V13.3317H63.0073V14.0723H62.2667ZM62.2667 13.3317V12.591H63.0073V13.3317H62.2667ZM62.2667 12.591V11.8504H63.0073V12.591H62.2667ZM62.2667 11.8504V11.1097H63.0073V11.8504H62.2667ZM62.2667 11.1097V10.3691H63.0073V11.1097H62.2667ZM61.526 11.8504V11.1097H62.2667V11.8504H61.526ZM61.526 12.591V11.8504H62.2667V12.591H61.526ZM55.6009 5.18453V4.44388H56.3415V5.18453H55.6009ZM54.8602 5.18453V4.44388H55.6009V5.18453H54.8602ZM54.1196 5.18453V4.44388H54.8602V5.18453H54.1196ZM53.3789 5.18453V4.44388H54.1196V5.18453H53.3789ZM52.6383 5.92518V5.18453H53.3789V5.92518H52.6383ZM52.6383 6.66583V5.92518H53.3789V6.66583H52.6383ZM52.6383 5.18453V4.44388H53.3789V5.18453H52.6383ZM53.3789 5.92518V5.18453H54.1196V5.92518H53.3789ZM54.1196 5.92518V5.18453H54.8602V5.92518H54.1196ZM54.8602 5.92518V5.18453H55.6009V5.92518H54.8602ZM55.6009 5.92518V5.18453H56.3415V5.92518H55.6009ZM55.6009 6.66583V5.92518H56.3415V6.66583H55.6009ZM55.6009 7.40647V6.66583H56.3415V7.40647H55.6009ZM54.8602 7.40647V6.66583H55.6009V7.40647H54.8602ZM54.1196 7.40647V6.66583H54.8602V7.40647H54.1196ZM53.3789 7.40647V6.66583H54.1196V7.40647H53.3789ZM52.6383 7.40647V6.66583H53.3789V7.40647H52.6383ZM53.3789 6.66583V5.92518H54.1196V6.66583H53.3789ZM54.1196 6.66583V5.92518H54.8602V6.66583H54.1196ZM54.8602 6.66583V5.92518H55.6009V6.66583H54.8602ZM52.6383 15.5536V14.8129H53.3789V15.5536H52.6383ZM53.3789 15.5536V14.8129H54.1196V15.5536H53.3789ZM54.8602 15.5536V14.8129H55.6009V15.5536H54.8602ZM54.8602 14.8129V14.0723H55.6009V14.8129H54.8602ZM54.8602 14.0723V13.3317H55.6009V14.0723H54.8602ZM55.6009 13.3317V12.591H56.3415V13.3317H55.6009ZM55.6009 12.591V11.8504H56.3415V12.591H55.6009ZM55.6009 11.8504V11.1097H56.3415V11.8504H55.6009ZM55.6009 11.1097V10.3691H56.3415V11.1097H55.6009ZM55.6009 10.3691V9.62842H56.3415V10.3691H55.6009ZM55.6009 9.62842V8.88777H56.3415V9.62842H55.6009ZM55.6009 8.88777V8.14712H56.3415V8.88777H55.6009ZM55.6009 8.14712V7.40647H56.3415V8.14712H55.6009ZM54.8602 8.14712V7.40647H55.6009V8.14712H54.8602ZM54.1196 8.14712V7.40647H54.8602V8.14712H54.1196ZM53.3789 8.14712V7.40647H54.1196V8.14712H53.3789ZM52.6383 8.14712V7.40647H53.3789V8.14712H52.6383ZM52.6383 8.88777V8.14712H53.3789V8.88777H52.6383ZM52.6383 10.3691V9.62842H53.3789V10.3691H52.6383ZM52.6383 11.1097V10.3691H53.3789V11.1097H52.6383ZM52.6383 11.8504V11.1097H53.3789V11.8504H52.6383ZM52.6383 12.591V11.8504H53.3789V12.591H52.6383ZM52.6383 13.3317V12.591H53.3789V13.3317H52.6383ZM52.6383 14.0723V13.3317H53.3789V14.0723H52.6383ZM52.6383 14.8129V14.0723H53.3789V14.8129H52.6383ZM53.3789 11.8504V11.1097H54.1196V11.8504H53.3789ZM53.3789 10.3691V9.62842H54.1196V10.3691H53.3789ZM53.3789 9.62842V8.88777H54.1196V9.62842H53.3789ZM53.3789 8.88777V8.14712H54.1196V8.88777H53.3789ZM52.6383 9.62842V8.88777H53.3789V9.62842H52.6383ZM53.3789 13.3317V12.591H54.1196V13.3317H53.3789ZM54.1196 13.3317V12.591H54.8602V13.3317H54.1196ZM54.8602 13.3317V12.591H55.6009V13.3317H54.8602ZM54.8602 12.591V11.8504H55.6009V12.591H54.8602ZM54.8602 11.8504V11.1097H55.6009V11.8504H54.8602ZM54.8602 11.1097V10.3691H55.6009V11.1097H54.8602ZM54.8602 10.3691V9.62842H55.6009V10.3691H54.8602ZM54.8602 9.62842V8.88777H55.6009V9.62842H54.8602ZM54.8602 8.88777V8.14712H55.6009V8.88777H54.8602ZM54.1196 8.88777V8.14712H54.8602V8.88777H54.1196ZM54.1196 9.62842V8.88777H54.8602V9.62842H54.1196ZM54.1196 10.3691V9.62842H54.8602V10.3691H54.1196ZM54.1196 11.1097V10.3691H54.8602V11.1097H54.1196ZM54.1196 11.8504V11.1097H54.8602V11.8504H54.1196ZM54.1196 12.591V11.8504H54.8602V12.591H54.1196ZM53.3789 12.591V11.8504H54.1196V12.591H53.3789ZM53.3789 11.1097V10.3691H54.1196V11.1097H53.3789ZM53.3789 14.0723V13.3317H54.1196V14.0723H53.3789ZM53.3789 14.8129V14.0723H54.1196V14.8129H53.3789ZM54.1196 14.8129V14.0723H54.8602V14.8129H54.1196ZM54.1196 14.0723V13.3317H54.8602V14.0723H54.1196ZM55.6009 14.0723V13.3317H56.3415V14.0723H55.6009ZM55.6009 14.8129V14.0723H56.3415V14.8129H55.6009ZM55.6009 15.5536V14.8129H56.3415V15.5536H55.6009ZM54.1196 15.5536V14.8129H54.8602V15.5536H54.1196ZM55.6009 18.5162V17.7755H56.3415V18.5162H55.6009ZM55.6009 17.7755V17.0349H56.3415V17.7755H55.6009ZM54.8602 17.7755V17.0349H55.6009V17.7755H54.8602ZM54.1196 17.7755V17.0349H54.8602V17.7755H54.1196ZM54.1196 17.0349V16.2942H54.8602V17.0349H54.1196ZM53.3789 17.0349V16.2942H54.1196V17.0349H53.3789ZM53.3789 16.2942V15.5536H54.1196V16.2942H53.3789ZM54.1196 16.2942V15.5536H54.8602V16.2942H54.1196ZM54.8602 16.2942V15.5536H55.6009V16.2942H54.8602ZM54.8602 17.0349V16.2942H55.6009V17.0349H54.8602ZM55.6009 17.0349V16.2942H56.3415V17.0349H55.6009ZM56.3415 17.0349V16.2942H57.0822V17.0349H56.3415ZM56.3415 16.2942V15.5536H57.0822V16.2942H56.3415ZM55.6009 16.2942V15.5536H56.3415V16.2942H55.6009ZM56.3415 15.5536V14.8129H57.0822V15.5536H56.3415ZM57.0822 16.2942V15.5536H57.8228V16.2942H57.0822ZM57.0822 17.0349V16.2942H57.8228V17.0349H57.0822ZM57.0822 17.7755V17.0349H57.8228V17.7755H57.0822ZM57.0822 18.5162V17.7755H57.8228V18.5162H57.0822ZM56.3415 18.5162V17.7755H57.0822V18.5162H56.3415ZM56.3415 17.7755V17.0349H57.0822V17.7755H56.3415ZM57.8228 18.5162V17.7755H58.5635V18.5162H57.8228ZM57.8228 17.7755V17.0349H58.5635V17.7755H57.8228ZM57.8228 17.0349V16.2942H58.5635V17.0349H57.8228ZM57.8228 16.2942V15.5536H58.5635V16.2942H57.8228ZM58.5635 18.5162V17.7755H59.3041V18.5162H58.5635ZM58.5635 17.7755V17.0349H59.3041V17.7755H58.5635ZM59.3041 17.7755V17.0349H60.0448V17.7755H59.3041ZM59.3041 17.0349V16.2942H60.0448V17.0349H59.3041ZM60.0448 17.0349V16.2942H60.7854V17.0349H60.0448ZM60.0448 16.2942V15.5536H60.7854V16.2942H60.0448ZM59.3041 16.2942V15.5536H60.0448V16.2942H59.3041ZM58.5635 16.2942V15.5536H59.3041V16.2942H58.5635ZM58.5635 17.0349V16.2942H59.3041V17.0349H58.5635ZM59.3041 18.5162V17.7755H60.0448V18.5162H59.3041ZM60.0448 17.7755V17.0349H60.7854V17.7755H60.0448ZM60.7854 14.8129V15.5536H60.0448V14.8129H60.7854Z" fill="#0A0A0A"/>
<path d="M74.8714 6.66583V7.40647H74.1308V6.66583H74.8714ZM74.8714 5.92518V6.66583H74.1308V5.92518H74.8714ZM74.8714 5.18453V5.92518H74.1308V5.18453H74.8714ZM74.1308 5.18453V5.92518H73.3902V5.18453H74.1308ZM74.1308 4.44388V5.18453H73.3902V4.44388H74.1308ZM74.1308 5.92518V6.66583H73.3902V5.92518H74.1308ZM73.3902 5.92518V6.66583H72.6495V5.92518H73.3902ZM73.3902 6.66583V7.40647H72.6495V6.66583H73.3902ZM74.1308 6.66583V7.40647H73.3902V6.66583H74.1308ZM72.6495 6.66583V7.40647H71.9089V6.66583H72.6495ZM72.6495 5.92518V6.66583H71.9089V5.92518H72.6495ZM72.6495 5.18453V5.92518H71.9089V5.18453H72.6495ZM72.6495 4.44388V5.18453H71.9089V4.44388H72.6495ZM73.3902 4.44388V5.18453H72.6495V4.44388H73.3902ZM73.3902 5.18453V5.92518H72.6495V5.18453H73.3902ZM71.9089 4.44388V5.18453H71.1682V4.44388H71.9089ZM71.1682 4.44388V5.18453H70.4276V4.44388H71.1682ZM70.4276 4.44388V5.18453H69.6869V4.44388H70.4276ZM70.4276 5.18453V5.92518H69.6869V5.18453H70.4276ZM70.4276 5.92518V6.66583H69.6869V5.92518H70.4276ZM70.4276 6.66583V7.40647H69.6869V6.66583H70.4276ZM71.1682 6.66583V7.40647H70.4276V6.66583H71.1682ZM71.9089 6.66583V7.40647H71.1682V6.66583H71.9089ZM71.9089 5.92518V6.66583H71.1682V5.92518H71.9089ZM71.9089 5.18453V5.92518H71.1682V5.18453H71.9089ZM71.1682 5.18453V5.92518H70.4276V5.18453H71.1682ZM71.1682 5.92518V6.66583H70.4276V5.92518H71.1682ZM69.6869 5.92518V6.66583H68.9463V5.92518H69.6869ZM69.6869 5.18453V5.92518H68.9463V5.18453H69.6869ZM68.9463 5.18453V5.92518H68.2056V5.18453H68.9463ZM68.9463 5.92518V6.66583H68.2056V5.92518H68.9463ZM68.2056 5.92518V6.66583H67.465V5.92518H68.2056ZM68.2056 6.66583V7.40647H67.465V6.66583H68.2056ZM68.2056 7.40647V8.14712H67.465V7.40647H68.2056ZM68.9463 7.40647V8.14712H68.2056V7.40647H68.9463ZM68.9463 6.66583V7.40647H68.2056V6.66583H68.9463ZM69.6869 6.66583V7.40647H68.9463V6.66583H69.6869ZM69.6869 7.40647V8.14712H68.9463V7.40647H69.6869ZM70.4276 7.40647V8.14712H69.6869V7.40647H70.4276ZM71.1682 7.40647V8.14712H70.4276V7.40647H71.1682ZM67.465 7.40647V8.14712H66.7243V7.40647H67.465ZM67.465 8.14712V8.88777H66.7243V8.14712H67.465ZM67.465 8.88777V9.62842H66.7243V8.88777H67.465ZM67.465 9.62842V10.3691H66.7243V9.62842H67.465ZM67.465 10.3691V11.1097H66.7243V10.3691H67.465ZM67.465 11.1097V11.8504H66.7243V11.1097H67.465ZM67.465 11.8504V12.591H66.7243V11.8504H67.465ZM67.465 12.591V13.3317H66.7243V12.591H67.465ZM67.465 13.3317V14.0723H66.7243V13.3317H67.465ZM67.465 14.0723V14.8129H66.7243V14.0723H67.465ZM68.2056 14.0723V14.8129H67.465V14.0723H68.2056ZM68.2056 14.8129V15.5536H67.465V14.8129H68.2056ZM67.465 14.8129V15.5536H66.7243V14.8129H67.465ZM68.9463 14.8129V15.5536H68.2056V14.8129H68.9463ZM69.6869 14.8129V15.5536H68.9463V14.8129H69.6869ZM70.4276 14.8129V15.5536H69.6869V14.8129H70.4276ZM71.1682 14.8129V15.5536H70.4276V14.8129H71.1682ZM70.4276 14.0723V14.8129H69.6869V14.0723H70.4276ZM70.4276 13.3317V14.0723H69.6869V13.3317H70.4276ZM70.4276 12.591V13.3317H69.6869V12.591H70.4276ZM70.4276 11.8504V12.591H69.6869V11.8504H70.4276ZM70.4276 11.1097V11.8504H69.6869V11.1097H70.4276ZM70.4276 10.3691V11.1097H69.6869V10.3691H70.4276ZM70.4276 9.62842V10.3691H69.6869V9.62842H70.4276ZM70.4276 8.88777V9.62842H69.6869V8.88777H70.4276ZM70.4276 8.14712V8.88777H69.6869V8.14712H70.4276ZM69.6869 8.14712V8.88777H68.9463V8.14712H69.6869ZM68.9463 8.14712V8.88777H68.2056V8.14712H68.9463ZM68.2056 8.14712V8.88777H67.465V8.14712H68.2056ZM68.2056 8.88777V9.62842H67.465V8.88777H68.2056ZM68.2056 9.62842V10.3691H67.465V9.62842H68.2056ZM68.2056 10.3691V11.1097H67.465V10.3691H68.2056ZM68.2056 11.1097V11.8504H67.465V11.1097H68.2056ZM68.2056 11.8504V12.591H67.465V11.8504H68.2056ZM68.2056 12.591V13.3317H67.465V12.591H68.2056ZM68.2056 13.3317V14.0723H67.465V13.3317H68.2056ZM68.9463 14.0723V14.8129H68.2056V14.0723H68.9463ZM69.6869 14.0723V14.8129H68.9463V14.0723H69.6869ZM69.6869 13.3317V14.0723H68.9463V13.3317H69.6869ZM69.6869 12.591V13.3317H68.9463V12.591H69.6869ZM69.6869 11.8504V12.591H68.9463V11.8504H69.6869ZM69.6869 11.1097V11.8504H68.9463V11.1097H69.6869ZM68.9463 11.1097V11.8504H68.2056V11.1097H68.9463ZM68.9463 10.3691V11.1097H68.2056V10.3691H68.9463ZM68.9463 9.62842V10.3691H68.2056V9.62842H68.9463ZM68.9463 8.88777V9.62842H68.2056V8.88777H68.9463ZM69.6869 8.88777V9.62842H68.9463V8.88777H69.6869ZM69.6869 9.62842V10.3691H68.9463V9.62842H69.6869ZM69.6869 10.3691V11.1097H68.9463V10.3691H69.6869ZM68.9463 12.591V13.3317H68.2056V12.591H68.9463ZM68.9463 13.3317V14.0723H68.2056V13.3317H68.9463ZM68.9463 11.8504V12.591H68.2056V11.8504H68.9463ZM74.8714 15.5536V16.2942H74.1308V15.5536H74.8714ZM74.1308 17.7755V18.5162H73.3902V17.7755H74.1308ZM73.3902 17.7755V18.5162H72.6495V17.7755H73.3902ZM72.6495 17.7755V18.5162H71.9089V17.7755H72.6495ZM71.9089 17.7755V18.5162H71.1682V17.7755H71.9089ZM71.1682 17.7755V18.5162H70.4276V17.7755H71.1682ZM70.4276 17.7755V18.5162H69.6869V17.7755H70.4276ZM71.1682 17.0349V17.7755H70.4276V17.0349H71.1682ZM71.9089 17.0349V17.7755H71.1682V17.0349H71.9089ZM72.6495 17.0349V17.7755H71.9089V17.0349H72.6495ZM73.3902 17.0349V17.7755H72.6495V17.0349H73.3902ZM74.1308 17.0349V17.7755H73.3902V17.0349H74.1308ZM74.8714 17.0349V17.7755H74.1308V17.0349H74.8714ZM74.8714 16.2942V17.0349H74.1308V16.2942H74.8714ZM74.1308 16.2942V17.0349H73.3902V16.2942H74.1308ZM73.3902 16.2942V17.0349H72.6495V16.2942H73.3902ZM72.6495 16.2942V17.0349H71.9089V16.2942H72.6495ZM71.9089 16.2942V17.0349H71.1682V16.2942H71.9089ZM71.1682 16.2942V17.0349H70.4276V16.2942H71.1682ZM70.4276 17.0349V17.7755H69.6869V17.0349H70.4276ZM69.6869 17.0349V17.7755H68.9463V17.0349H69.6869ZM68.9463 17.0349V17.7755H68.2056V17.0349H68.9463ZM68.9463 16.2942V17.0349H68.2056V16.2942H68.9463ZM68.2056 16.2942V17.0349H67.465V16.2942H68.2056ZM68.2056 15.5536V16.2942H67.465V15.5536H68.2056ZM68.9463 15.5536V16.2942H68.2056V15.5536H68.9463ZM69.6869 15.5536V16.2942H68.9463V15.5536H69.6869ZM70.4276 15.5536V16.2942H69.6869V15.5536H70.4276ZM71.1682 15.5536V16.2942H70.4276V15.5536H71.1682ZM71.9089 15.5536V16.2942H71.1682V15.5536H71.9089ZM72.6495 15.5536V16.2942H71.9089V15.5536H72.6495ZM73.3902 15.5536V16.2942H72.6495V15.5536H73.3902ZM74.1308 15.5536V16.2942H73.3902V15.5536H74.1308ZM70.4276 16.2942V17.0349H69.6869V16.2942H70.4276ZM69.6869 16.2942V17.0349H68.9463V16.2942H69.6869ZM75.6121 16.2942V17.0349H74.8714V16.2942H75.6121ZM75.6121 15.5536V16.2942H74.8714V15.5536H75.6121ZM75.6121 14.8129V15.5536H74.8714V14.8129H75.6121ZM75.6121 14.0723V14.8129H74.8714V14.0723H75.6121ZM75.6121 13.3317V14.0723H74.8714V13.3317H75.6121ZM75.6121 12.591V13.3317H74.8714V12.591H75.6121ZM75.6121 11.8504V12.591H74.8714V11.8504H75.6121ZM75.6121 11.1097V11.8504H74.8714V11.1097H75.6121ZM75.6121 10.3691V11.1097H74.8714V10.3691H75.6121ZM75.6121 9.62842V10.3691H74.8714V9.62842H75.6121ZM75.6121 8.88777V9.62842H74.8714V8.88777H75.6121ZM75.6121 8.14712V8.88777H74.8714V8.14712H75.6121ZM75.6121 7.40647V8.14712H74.8714V7.40647H75.6121ZM76.3527 7.40647V8.14712H75.6121V7.40647H76.3527ZM76.3527 8.14712V8.88777H75.6121V8.14712H76.3527ZM76.3527 8.88777V9.62842H75.6121V8.88777H76.3527ZM76.3527 9.62842V10.3691H75.6121V9.62842H76.3527ZM76.3527 10.3691V11.1097H75.6121V10.3691H76.3527ZM76.3527 11.1097V11.8504H75.6121V11.1097H76.3527ZM76.3527 11.8504V12.591H75.6121V11.8504H76.3527ZM77.0934 12.591V13.3317H76.3527V12.591H77.0934ZM77.0934 13.3317V14.0723H76.3527V13.3317H77.0934ZM77.0934 14.0723V14.8129H76.3527V14.0723H77.0934ZM77.0934 14.8129V15.5536H76.3527V14.8129H77.0934ZM77.0934 15.5536V16.2942H76.3527V15.5536H77.0934ZM77.0934 16.2942V17.0349H76.3527V16.2942H77.0934ZM77.0934 17.0349V17.7755H76.3527V17.0349H77.0934ZM77.0934 17.7755V18.5162H76.3527V17.7755H77.0934ZM77.834 17.7755V18.5162H77.0934V17.7755H77.834ZM78.5747 17.7755V18.5162H77.834V17.7755H78.5747ZM78.5747 17.0349V17.7755H77.834V17.0349H78.5747ZM78.5747 16.2942V17.0349H77.834V16.2942H78.5747ZM78.5747 15.5536V16.2942H77.834V15.5536H78.5747ZM78.5747 14.8129V15.5536H77.834V14.8129H78.5747ZM78.5747 14.0723V14.8129H77.834V14.0723H78.5747ZM78.5747 13.3317V14.0723H77.834V13.3317H78.5747ZM78.5747 12.591V13.3317H77.834V12.591H78.5747ZM77.834 12.591V13.3317H77.0934V12.591H77.834ZM77.834 11.8504V12.591H77.0934V11.8504H77.834ZM77.834 13.3317V14.0723H77.0934V13.3317H77.834ZM77.834 14.0723V14.8129H77.0934V14.0723H77.834ZM77.834 14.8129V15.5536H77.0934V14.8129H77.834ZM77.834 15.5536V16.2942H77.0934V15.5536H77.834ZM77.834 16.2942V17.0349H77.0934V16.2942H77.834ZM77.834 17.0349V17.7755H77.0934V17.0349H77.834ZM76.3527 16.2942V17.0349H75.6121V16.2942H76.3527ZM76.3527 15.5536V16.2942H75.6121V15.5536H76.3527ZM76.3527 14.8129V15.5536H75.6121V14.8129H76.3527ZM76.3527 14.0723V14.8129H75.6121V14.0723H76.3527ZM76.3527 13.3317V14.0723H75.6121V13.3317H76.3527ZM76.3527 12.591V13.3317H75.6121V12.591H76.3527ZM75.6121 0V0.740648H74.8714V0H75.6121ZM75.6121 0.740648V1.48129H74.8714V0.740648H75.6121ZM75.6121 1.48129V2.22194H74.8714V1.48129H75.6121ZM75.6121 2.22194V2.96259H74.8714V2.22194H75.6121ZM75.6121 2.96259V3.70324H74.8714V2.96259H75.6121ZM75.6121 3.70324V4.44388H74.8714V3.70324H75.6121ZM75.6121 5.18453V5.92518H74.8714V5.18453H75.6121ZM75.6121 6.66583V7.40647H74.8714V6.66583H75.6121ZM77.834 0V0.740648H77.0934V0H77.834ZM77.834 0.740648V1.48129H77.0934V0.740648H77.834ZM77.834 1.48129V2.22194H77.0934V1.48129H77.834ZM77.834 2.22194V2.96259H77.0934V2.22194H77.834ZM77.834 2.96259V3.70324H77.0934V2.96259H77.834ZM77.834 3.70324V4.44388H77.0934V3.70324H77.834ZM77.834 5.18453V5.92518H77.0934V5.18453H77.834ZM77.834 5.92518V6.66583H77.0934V5.92518H77.834ZM77.834 6.66583V7.40647H77.0934V6.66583H77.834ZM77.834 8.14712V8.88777H77.0934V8.14712H77.834ZM77.834 8.88777V9.62842H77.0934V8.88777H77.834ZM77.834 9.62842V10.3691H77.0934V9.62842H77.834ZM78.5747 10.3691V11.1097H77.834V10.3691H78.5747ZM78.5747 11.1097V11.8504H77.834V11.1097H78.5747ZM78.5747 11.8504V12.591H77.834V11.8504H78.5747ZM78.5747 9.62842V10.3691H77.834V9.62842H78.5747ZM78.5747 8.88777V9.62842H77.834V8.88777H78.5747ZM78.5747 7.40647V8.14712H77.834V7.40647H78.5747ZM78.5747 6.66583V7.40647H77.834V6.66583H78.5747ZM78.5747 5.92518V6.66583H77.834V5.92518H78.5747ZM78.5747 5.18453V5.92518H77.834V5.18453H78.5747ZM78.5747 4.44388V5.18453H77.834V4.44388H78.5747ZM78.5747 3.70324V4.44388H77.834V3.70324H78.5747ZM78.5747 2.96259V3.70324H77.834V2.96259H78.5747ZM77.834 4.44388V5.18453H77.0934V4.44388H77.834ZM78.5747 2.22194V2.96259H77.834V2.22194H78.5747ZM78.5747 1.48129V2.22194H77.834V1.48129H78.5747ZM78.5747 0.740648V1.48129H77.834V0.740648H78.5747ZM78.5747 0V0.740648H77.834V0H78.5747ZM77.0934 0V0.740648H76.3527V0H77.0934ZM76.3527 0V0.740648H75.6121V0H76.3527ZM76.3527 0.740648V1.48129H75.6121V0.740648H76.3527ZM77.0934 0.740648V1.48129H76.3527V0.740648H77.0934ZM77.0934 1.48129V2.22194H76.3527V1.48129H77.0934ZM77.0934 2.22194V2.96259H76.3527V2.22194H77.0934ZM77.0934 2.96259V3.70324H76.3527V2.96259H77.0934ZM77.0934 3.70324V4.44388H76.3527V3.70324H77.0934ZM77.0934 4.44388V5.18453H76.3527V4.44388H77.0934ZM77.0934 5.18453V5.92518H76.3527V5.18453H77.0934ZM76.3527 5.92518V6.66583H75.6121V5.92518H76.3527ZM76.3527 6.66583V7.40647H75.6121V6.66583H76.3527ZM76.3527 5.18453V5.92518H75.6121V5.18453H76.3527ZM76.3527 4.44388V5.18453H75.6121V4.44388H76.3527ZM76.3527 3.70324V4.44388H75.6121V3.70324H76.3527ZM76.3527 2.96259V3.70324H75.6121V2.96259H76.3527ZM76.3527 2.22194V2.96259H75.6121V2.22194H76.3527ZM76.3527 1.48129V2.22194H75.6121V1.48129H76.3527ZM77.0934 6.66583V7.40647H76.3527V6.66583H77.0934ZM77.0934 8.14712V8.88777H76.3527V8.14712H77.0934ZM77.0934 8.88777V9.62842H76.3527V8.88777H77.0934ZM77.0934 9.62842V10.3691H76.3527V9.62842H77.0934ZM77.0934 10.3691V11.1097H76.3527V10.3691H77.0934ZM77.0934 11.1097V11.8504H76.3527V11.1097H77.0934ZM77.0934 11.8504V12.591H76.3527V11.8504H77.0934ZM77.834 11.1097V11.8504H77.0934V11.1097H77.834ZM77.834 10.3691V11.1097H77.0934V10.3691H77.834ZM75.6121 4.44388V5.18453H74.8714V4.44388H75.6121ZM78.5747 8.14712V8.88777H77.834V8.14712H78.5747ZM75.6121 5.92518V6.66583H74.8714V5.92518H75.6121ZM77.0934 5.92518V6.66583H76.3527V5.92518H77.0934ZM77.0934 7.40647V8.14712H76.3527V7.40647H77.0934ZM77.834 7.40647V8.14712H77.0934V7.40647H77.834ZM75.6121 17.0349V17.7755H74.8714V17.0349H75.6121ZM76.3527 17.0349V17.7755H75.6121V17.0349H76.3527ZM76.3527 17.7755V18.5162H75.6121V17.7755H76.3527ZM74.8714 4.44388V5.18453H74.1308V4.44388H74.8714ZM74.8714 14.8129V15.5536H74.1308V14.8129H74.8714ZM75.6121 17.7755V18.5162H74.8714V17.7755H75.6121Z" fill="#0A0A0A"/>
<path d="M89.6981 8.88777V9.62842H88.9575V8.88777H89.6981ZM90.4388 8.88777V9.62842H89.6981V8.88777H90.4388ZM91.1794 8.88777V9.62842H90.4388V8.88777H91.1794ZM91.9201 8.88777V9.62842H91.1794V8.88777H91.9201ZM92.6607 8.88777V9.62842H91.9201V8.88777H92.6607ZM92.6607 8.14712V8.88777H91.9201V8.14712H92.6607ZM92.6607 7.40647V8.14712H91.9201V7.40647H92.6607ZM91.9201 7.40647V8.14712H91.1794V7.40647H91.9201ZM91.1794 7.40647V8.14712H90.4388V7.40647H91.1794ZM90.4388 7.40647V8.14712H89.6981V7.40647H90.4388ZM90.4388 8.14712V8.88777H89.6981V8.14712H90.4388ZM89.6981 8.14712V8.88777H88.9575V8.14712H89.6981ZM91.1794 8.14712V8.88777H90.4388V8.14712H91.1794ZM91.9201 8.14712V8.88777H91.1794V8.14712H91.9201ZM89.6981 7.40647V8.14712H88.9575V7.40647H89.6981ZM88.9575 7.40647V8.14712H88.2168V7.40647H88.9575ZM88.9575 6.66583V7.40647H88.2168V6.66583H88.9575ZM89.6981 6.66583V7.40647H88.9575V6.66583H89.6981ZM90.4388 6.66583V7.40647H89.6981V6.66583H90.4388ZM91.1794 6.66583V7.40647H90.4388V6.66583H91.1794ZM91.9201 6.66583V7.40647H91.1794V6.66583H91.9201ZM91.9201 5.92518V6.66583H91.1794V5.92518H91.9201ZM91.1794 5.92518V6.66583H90.4388V5.92518H91.1794ZM90.4388 5.92518V6.66583H89.6981V5.92518H90.4388ZM89.6981 5.92518V6.66583H88.9575V5.92518H89.6981ZM88.9575 5.92518V6.66583H88.2168V5.92518H88.9575ZM90.4388 5.18453V5.92518H89.6981V5.18453H90.4388ZM91.1794 5.18453V5.92518H90.4388V5.18453H91.1794ZM89.6981 5.18453V5.92518H88.9575V5.18453H89.6981ZM89.6981 4.44388V5.18453H88.9575V4.44388H89.6981ZM88.9575 4.44388V5.18453H88.2168V4.44388H88.9575ZM88.9575 5.18453V5.92518H88.2168V5.18453H88.9575ZM88.2168 5.18453V5.92518H87.4762V5.18453H88.2168ZM88.2168 4.44388V5.18453H87.4762V4.44388H88.2168ZM88.2168 5.92518V6.66583H87.4762V5.92518H88.2168ZM87.4762 5.92518V6.66583H86.7355V5.92518H87.4762ZM87.4762 6.66583V7.40647H86.7355V6.66583H87.4762ZM88.2168 6.66583V7.40647H87.4762V6.66583H88.2168ZM86.7355 6.66583V7.40647H85.9949V6.66583H86.7355ZM86.7355 5.92518V6.66583H85.9949V5.92518H86.7355ZM86.7355 5.18453V5.92518H85.9949V5.18453H86.7355ZM86.7355 4.44388V5.18453H85.9949V4.44388H86.7355ZM87.4762 4.44388V5.18453H86.7355V4.44388H87.4762ZM87.4762 5.18453V5.92518H86.7355V5.18453H87.4762ZM85.9949 4.44388V5.18453H85.2542V4.44388H85.9949ZM85.2542 4.44388V5.18453H84.5136V4.44388H85.2542ZM84.5136 4.44388V5.18453H83.7729V4.44388H84.5136ZM84.5136 5.18453V5.92518H83.7729V5.18453H84.5136ZM84.5136 5.92518V6.66583H83.7729V5.92518H84.5136ZM84.5136 6.66583V7.40647H83.7729V6.66583H84.5136ZM85.2542 6.66583V7.40647H84.5136V6.66583H85.2542ZM85.9949 6.66583V7.40647H85.2542V6.66583H85.9949ZM85.9949 5.92518V6.66583H85.2542V5.92518H85.9949ZM85.9949 5.18453V5.92518H85.2542V5.18453H85.9949ZM85.2542 5.18453V5.92518H84.5136V5.18453H85.2542ZM85.2542 5.92518V6.66583H84.5136V5.92518H85.2542ZM83.7729 5.92518V6.66583H83.0323V5.92518H83.7729ZM83.7729 5.18453V5.92518H83.0323V5.18453H83.7729ZM83.0323 5.18453V5.92518H82.2917V5.18453H83.0323ZM83.0323 5.92518V6.66583H82.2917V5.92518H83.0323ZM82.2917 5.92518V6.66583H81.551V5.92518H82.2917ZM82.2917 6.66583V7.40647H81.551V6.66583H82.2917ZM82.2917 7.40647V8.14712H81.551V7.40647H82.2917ZM83.0323 7.40647V8.14712H82.2917V7.40647H83.0323ZM83.0323 6.66583V7.40647H82.2917V6.66583H83.0323ZM83.7729 6.66583V7.40647H83.0323V6.66583H83.7729ZM83.7729 7.40647V8.14712H83.0323V7.40647H83.7729ZM84.5136 7.40647V8.14712H83.7729V7.40647H84.5136ZM85.2542 7.40647V8.14712H84.5136V7.40647H85.2542ZM81.551 7.40647V8.14712H80.8104V7.40647H81.551ZM81.551 8.14712V8.88777H80.8104V8.14712H81.551ZM81.551 8.88777V9.62842H80.8104V8.88777H81.551ZM81.551 9.62842V10.3691H80.8104V9.62842H81.551ZM81.551 10.3691V11.1097H80.8104V10.3691H81.551ZM81.551 11.1097V11.8504H80.8104V11.1097H81.551ZM81.551 11.8504V12.591H80.8104V11.8504H81.551ZM81.551 12.591V13.3317H80.8104V12.591H81.551ZM81.551 13.3317V14.0723H80.8104V13.3317H81.551ZM81.551 14.0723V14.8129H80.8104V14.0723H81.551ZM82.2917 14.0723V14.8129H81.551V14.0723H82.2917ZM82.2917 14.8129V15.5536H81.551V14.8129H82.2917ZM81.551 14.8129V15.5536H80.8104V14.8129H81.551ZM83.0323 14.8129V15.5536H82.2917V14.8129H83.0323ZM83.7729 14.8129V15.5536H83.0323V14.8129H83.7729ZM84.5136 14.8129V15.5536H83.7729V14.8129H84.5136ZM85.2542 14.8129V15.5536H84.5136V14.8129H85.2542ZM84.5136 14.0723V14.8129H83.7729V14.0723H84.5136ZM84.5136 13.3317V14.0723H83.7729V13.3317H84.5136ZM84.5136 12.591V13.3317H83.7729V12.591H84.5136ZM84.5136 11.8504V12.591H83.7729V11.8504H84.5136ZM84.5136 11.1097V11.8504H83.7729V11.1097H84.5136ZM84.5136 10.3691V11.1097H83.7729V10.3691H84.5136ZM84.5136 9.62842V10.3691H83.7729V9.62842H84.5136ZM84.5136 8.88777V9.62842H83.7729V8.88777H84.5136ZM84.5136 8.14712V8.88777H83.7729V8.14712H84.5136ZM83.7729 8.14712V8.88777H83.0323V8.14712H83.7729ZM83.0323 8.14712V8.88777H82.2917V8.14712H83.0323ZM82.2917 8.14712V8.88777H81.551V8.14712H82.2917ZM82.2917 8.88777V9.62842H81.551V8.88777H82.2917ZM82.2917 9.62842V10.3691H81.551V9.62842H82.2917ZM82.2917 10.3691V11.1097H81.551V10.3691H82.2917ZM82.2917 11.1097V11.8504H81.551V11.1097H82.2917ZM82.2917 11.8504V12.591H81.551V11.8504H82.2917ZM82.2917 12.591V13.3317H81.551V12.591H82.2917ZM82.2917 13.3317V14.0723H81.551V13.3317H82.2917ZM83.0323 14.0723V14.8129H82.2917V14.0723H83.0323ZM83.7729 14.0723V14.8129H83.0323V14.0723H83.7729ZM83.7729 13.3317V14.0723H83.0323V13.3317H83.7729ZM83.7729 12.591V13.3317H83.0323V12.591H83.7729ZM83.7729 11.8504V12.591H83.0323V11.8504H83.7729ZM83.7729 11.1097V11.8504H83.0323V11.1097H83.7729ZM83.0323 11.1097V11.8504H82.2917V11.1097H83.0323ZM83.0323 10.3691V11.1097H82.2917V10.3691H83.0323ZM83.0323 9.62842V10.3691H82.2917V9.62842H83.0323ZM83.0323 8.88777V9.62842H82.2917V8.88777H83.0323ZM83.7729 8.88777V9.62842H83.0323V8.88777H83.7729ZM83.7729 9.62842V10.3691H83.0323V9.62842H83.7729ZM83.7729 10.3691V11.1097H83.0323V10.3691H83.7729ZM83.0323 12.591V13.3317H82.2917V12.591H83.0323ZM83.0323 13.3317V14.0723H82.2917V13.3317H83.0323ZM83.0323 11.8504V12.591H82.2917V11.8504H83.0323ZM89.6981 14.0723V14.8129H88.9575V14.0723H89.6981ZM90.4388 14.0723V14.8129H89.6981V14.0723H90.4388ZM91.1794 14.0723V14.8129H90.4388V14.0723H91.1794ZM91.9201 14.0723V14.8129H91.1794V14.0723H91.9201ZM92.6607 14.0723V14.8129H91.9201V14.0723H92.6607ZM92.6607 14.8129V15.5536H91.9201V14.8129H92.6607ZM91.9201 14.8129V15.5536H91.1794V14.8129H91.9201ZM91.1794 14.8129V15.5536H90.4388V14.8129H91.1794ZM90.4388 14.8129V15.5536H89.6981V14.8129H90.4388ZM89.6981 14.8129V15.5536H88.9575V14.8129H89.6981ZM88.9575 14.8129V15.5536H88.2168V14.8129H88.9575ZM88.9575 15.5536V16.2942H88.2168V15.5536H88.9575ZM89.6981 15.5536V16.2942H88.9575V15.5536H89.6981ZM90.4388 15.5536V16.2942H89.6981V15.5536H90.4388ZM91.1794 15.5536V16.2942H90.4388V15.5536H91.1794ZM91.1794 16.2942V17.0349H90.4388V16.2942H91.1794ZM91.9201 16.2942V17.0349H91.1794V16.2942H91.9201ZM91.9201 15.5536V16.2942H91.1794V15.5536H91.9201ZM91.1794 17.0349V17.7755H90.4388V17.0349H91.1794ZM90.4388 17.0349V17.7755H89.6981V17.0349H90.4388ZM90.4388 16.2942V17.0349H89.6981V16.2942H90.4388ZM89.6981 16.2942V17.0349H88.9575V16.2942H89.6981ZM89.6981 17.0349V17.7755H88.9575V17.0349H89.6981ZM89.6981 17.7755V18.5162H88.9575V17.7755H89.6981ZM88.9575 17.7755V18.5162H88.2168V17.7755H88.9575ZM88.2168 17.7755V18.5162H87.4762V17.7755H88.2168ZM87.4762 17.7755V18.5162H86.7355V17.7755H87.4762ZM86.7355 17.7755V18.5162H85.9949V17.7755H86.7355ZM85.9949 17.7755V18.5162H85.2542V17.7755H85.9949ZM85.2542 17.7755V18.5162H84.5136V17.7755H85.2542ZM84.5136 17.7755V18.5162H83.7729V17.7755H84.5136ZM85.2542 17.0349V17.7755H84.5136V17.0349H85.2542ZM85.9949 17.0349V17.7755H85.2542V17.0349H85.9949ZM86.7355 17.0349V17.7755H85.9949V17.0349H86.7355ZM87.4762 17.0349V17.7755H86.7355V17.0349H87.4762ZM88.2168 17.0349V17.7755H87.4762V17.0349H88.2168ZM88.9575 17.0349V17.7755H88.2168V17.0349H88.9575ZM88.9575 16.2942V17.0349H88.2168V16.2942H88.9575ZM88.2168 16.2942V17.0349H87.4762V16.2942H88.2168ZM87.4762 16.2942V17.0349H86.7355V16.2942H87.4762ZM86.7355 16.2942V17.0349H85.9949V16.2942H86.7355ZM85.9949 16.2942V17.0349H85.2542V16.2942H85.9949ZM85.2542 16.2942V17.0349H84.5136V16.2942H85.2542ZM84.5136 17.0349V17.7755H83.7729V17.0349H84.5136ZM83.7729 17.0349V17.7755H83.0323V17.0349H83.7729ZM83.0323 17.0349V17.7755H82.2917V17.0349H83.0323ZM83.0323 16.2942V17.0349H82.2917V16.2942H83.0323ZM82.2917 16.2942V17.0349H81.551V16.2942H82.2917ZM82.2917 15.5536V16.2942H81.551V15.5536H82.2917ZM83.0323 15.5536V16.2942H82.2917V15.5536H83.0323ZM83.7729 15.5536V16.2942H83.0323V15.5536H83.7729ZM84.5136 15.5536V16.2942H83.7729V15.5536H84.5136ZM85.2542 15.5536V16.2942H84.5136V15.5536H85.2542ZM85.9949 15.5536V16.2942H85.2542V15.5536H85.9949ZM86.7355 15.5536V16.2942H85.9949V15.5536H86.7355ZM87.4762 15.5536V16.2942H86.7355V15.5536H87.4762ZM88.2168 15.5536V16.2942H87.4762V15.5536H88.2168ZM84.5136 16.2942V17.0349H83.7729V16.2942H84.5136ZM83.7729 16.2942V17.0349H83.0323V16.2942H83.7729ZM92.6607 9.62842V10.3691H91.9201V9.62842H92.6607ZM91.9201 9.62842V10.3691H91.1794V9.62842H91.9201ZM91.1794 9.62842V10.3691H90.4388V9.62842H91.1794ZM90.4388 9.62842V10.3691H89.6981V9.62842H90.4388ZM89.6981 9.62842V10.3691H88.9575V9.62842H89.6981ZM92.6607 10.3691V11.1097H91.9201V10.3691H92.6607ZM91.1794 10.3691V11.1097H90.4388V10.3691H91.1794ZM90.4388 10.3691V11.1097H89.6981V10.3691H90.4388ZM88.9575 10.3691V11.1097H88.2168V10.3691H88.9575ZM88.2168 10.3691V11.1097H87.4762V10.3691H88.2168ZM87.4762 10.3691V11.1097H86.7355V10.3691H87.4762ZM86.7355 10.3691V11.1097H85.9949V10.3691H86.7355ZM85.9949 10.3691V11.1097H85.2542V10.3691H85.9949ZM85.2542 10.3691V11.1097H84.5136V10.3691H85.2542ZM89.6981 10.3691V11.1097H88.9575V10.3691H89.6981ZM91.9201 10.3691V11.1097H91.1794V10.3691H91.9201ZM92.6607 11.1097V11.8504H91.9201V11.1097H92.6607ZM91.9201 11.1097V11.8504H91.1794V11.1097H91.9201ZM91.1794 11.1097V11.8504H90.4388V11.1097H91.1794ZM90.4388 11.1097V11.8504H89.6981V11.1097H90.4388ZM89.6981 11.1097V11.8504H88.9575V11.1097H89.6981ZM88.9575 11.1097V11.8504H88.2168V11.1097H88.9575ZM88.2168 11.1097V11.8504H87.4762V11.1097H88.2168ZM87.4762 11.1097V11.8504H86.7355V11.1097H87.4762ZM86.7355 11.1097V11.8504H85.9949V11.1097H86.7355ZM85.9949 11.1097V11.8504H85.2542V11.1097H85.9949ZM85.2542 11.1097V11.8504H84.5136V11.1097H85.2542ZM85.2542 11.8504V12.591H84.5136V11.8504H85.2542ZM85.9949 11.8504V12.591H85.2542V11.8504H85.9949ZM86.7355 11.8504V12.591H85.9949V11.8504H86.7355ZM88.2168 11.8504V12.591H87.4762V11.8504H88.2168ZM88.9575 11.8504V12.591H88.2168V11.8504H88.9575ZM89.6981 11.8504V12.591H88.9575V11.8504H89.6981ZM90.4388 11.8504V12.591H89.6981V11.8504H90.4388ZM91.1794 11.8504V12.591H90.4388V11.8504H91.1794ZM91.9201 11.8504V12.591H91.1794V11.8504H91.9201ZM92.6607 11.8504V12.591H91.9201V11.8504H92.6607ZM87.4762 11.8504V12.591H86.7355V11.8504H87.4762Z" fill="#0A0A0A"/>
<path d="M1.53138 30.1553V42.8015H0V30.1553H1.53138Z" fill="#0A0A0A"/>
<path d="M6.03543 37.0959V42.8015H4.57815V33.3168H5.98603V34.7988H6.10953C6.33183 34.3172 6.66939 33.9302 7.12221 33.6379C7.57504 33.3415 8.1596 33.1933 8.87589 33.1933C9.51808 33.1933 10.08 33.3251 10.5616 33.5885C11.0433 33.8479 11.4179 34.2431 11.6855 34.7741C11.9531 35.301 12.0869 35.9679 12.0869 36.7748V42.8015H10.6296V36.8736C10.6296 36.1285 10.4361 35.548 10.0491 35.1323C9.66217 34.7124 9.13112 34.5024 8.456 34.5024C7.99082 34.5024 7.57504 34.6033 7.20866 34.805C6.8464 35.0067 6.5603 35.301 6.35035 35.688C6.1404 36.075 6.03543 36.5443 6.03543 37.0959Z" fill="#0A0A0A"/>
<path d="M19.0485 33.3168V34.5518H14.1333V33.3168H19.0485ZM15.5659 31.0445H17.0231V40.0845C17.0231 40.4962 17.0828 40.8049 17.2022 41.0108C17.3257 41.2125 17.4821 41.3483 17.6715 41.4183C17.865 41.4842 18.0688 41.5171 18.2828 41.5171C18.4434 41.5171 18.5751 41.5089 18.678 41.4924C18.7809 41.4718 18.8633 41.4554 18.925 41.443L19.2214 42.7521C19.1226 42.7892 18.9847 42.8262 18.8077 42.8633C18.6307 42.9044 18.4063 42.925 18.1346 42.925C17.723 42.925 17.3195 42.8365 16.9243 42.6595C16.5333 42.4825 16.2081 42.2128 15.9487 41.8506C15.6935 41.4883 15.5659 41.0314 15.5659 40.4797V31.0445Z" fill="#0A0A0A"/>
<path d="M25.2893 42.9991C24.3754 42.9991 23.587 42.7974 22.9243 42.394C22.2656 41.9864 21.7572 41.4183 21.3991 40.6897C21.045 39.9569 20.868 39.1048 20.868 38.1333C20.868 37.1617 21.045 36.3055 21.3991 35.5645C21.7572 34.8194 22.2553 34.2389 22.8934 33.8232C23.5356 33.4033 24.2848 33.1933 25.1411 33.1933C25.6351 33.1933 26.1229 33.2757 26.6045 33.4403C27.0862 33.605 27.5246 33.8726 27.9198 34.2431C28.315 34.6094 28.6299 35.0952 28.8645 35.7003C29.0992 36.3055 29.2165 37.0506 29.2165 37.9357V38.5532H21.9054V37.2935H27.7345C27.7345 36.7583 27.6275 36.2808 27.4134 35.8609C27.2035 35.441 26.903 35.1096 26.5119 34.8667C26.1249 34.6238 25.668 34.5024 25.1411 34.5024C24.5606 34.5024 24.0584 34.6465 23.6344 34.9347C23.2145 35.2187 22.8913 35.5892 22.6649 36.0461C22.4385 36.5031 22.3253 36.993 22.3253 37.5158V38.3556C22.3253 39.0719 22.4488 39.6791 22.6958 40.1772C22.9469 40.6712 23.2948 41.0478 23.7394 41.3072C24.184 41.5624 24.7006 41.69 25.2893 41.69C25.6721 41.69 26.0179 41.6365 26.3266 41.5295C26.6395 41.4183 26.9091 41.2537 27.1356 41.0355C27.362 40.8132 27.5369 40.5374 27.6604 40.208L29.0683 40.6032C28.9201 41.0808 28.6711 41.5007 28.3211 41.8629C27.9712 42.2211 27.539 42.501 27.0244 42.7027C26.5098 42.9003 25.9315 42.9991 25.2893 42.9991Z" fill="#0A0A0A"/>
<path d="M33.0645 30.1553V42.8015H31.6072V30.1553H33.0645Z" fill="#0A0A0A"/>
<path d="M37.3648 30.1553V42.8015H35.9075V30.1553H37.3648Z" fill="#0A0A0A"/>
<path d="M40.2077 42.8015V33.3168H41.665V42.8015H40.2077ZM40.9487 31.736C40.6647 31.736 40.4198 31.6393 40.2139 31.4458C40.0122 31.2523 39.9114 31.0198 39.9114 30.7481C39.9114 30.4764 40.0122 30.2438 40.2139 30.0503C40.4198 29.8568 40.6647 29.7601 40.9487 29.7601C41.2328 29.7601 41.4757 29.8568 41.6774 30.0503C41.8832 30.2438 41.9861 30.4764 41.9861 30.7481C41.9861 31.0198 41.8832 31.2523 41.6774 31.4458C41.4757 31.6393 41.2328 31.736 40.9487 31.736Z" fill="#0A0A0A"/>
<path d="M48.3365 46.5559C47.6325 46.5559 47.0274 46.4653 46.521 46.2842C46.0147 46.1071 45.5928 45.8725 45.2552 45.5802C44.9217 45.2921 44.6562 44.9833 44.4586 44.654L45.6195 43.8389C45.7512 44.0118 45.918 44.2094 46.1197 44.4317C46.3214 44.6581 46.5972 44.8536 46.9471 45.0183C47.3011 45.1871 47.7643 45.2715 48.3365 45.2715C49.1022 45.2715 49.7341 45.0862 50.2322 44.7157C50.7303 44.3452 50.9793 43.7648 50.9793 42.9744V41.0478H50.8558C50.7488 41.2207 50.5965 41.4348 50.3989 41.69C50.2054 41.9411 49.9255 42.1655 49.5591 42.3631C49.1968 42.5566 48.707 42.6533 48.0895 42.6533C47.3238 42.6533 46.6363 42.4722 46.0271 42.1099C45.4219 41.7477 44.9423 41.2207 44.5883 40.5291C44.2384 39.8375 44.0634 38.9978 44.0634 38.0098C44.0634 37.0382 44.2343 36.1923 44.5759 35.4719C44.9176 34.7473 45.3931 34.1875 46.0024 33.7923C46.6116 33.393 47.3156 33.1933 48.1142 33.1933C48.7317 33.1933 49.2215 33.2962 49.5838 33.5021C49.9502 33.7038 50.2301 33.9343 50.4236 34.1937C50.6212 34.4489 50.7735 34.6588 50.8805 34.8235H51.0287V33.3168H52.4366V43.0732C52.4366 43.8883 52.2514 44.5511 51.8809 45.0615C51.5145 45.5761 51.0205 45.9528 50.3989 46.1915C49.7814 46.4344 49.0939 46.5559 48.3365 46.5559ZM48.2871 41.3442C48.8716 41.3442 49.3656 41.2104 49.7691 40.9429C50.1725 40.6753 50.4792 40.2904 50.6891 39.7881C50.8991 39.2859 51.004 38.6849 51.004 37.9851C51.004 37.3017 50.9011 36.6986 50.6953 36.1758C50.4895 35.653 50.1848 35.2434 49.7814 34.947C49.378 34.6506 48.8799 34.5024 48.2871 34.5024C47.6696 34.5024 47.155 34.6588 46.7433 34.9717C46.3358 35.2846 46.0291 35.7045 45.8233 36.2314C45.6216 36.7583 45.5207 37.3429 45.5207 37.9851C45.5207 38.6437 45.6236 39.2262 45.8295 39.7326C46.0394 40.2348 46.3481 40.63 46.7557 40.9182C47.1674 41.2022 47.6778 41.3442 48.2871 41.3442Z" fill="#0A0A0A"/>
<path d="M59.2547 42.9991C58.3408 42.9991 57.5525 42.7974 56.8897 42.394C56.2311 41.9864 55.7227 41.4183 55.3645 40.6897C55.0105 39.9569 54.8335 39.1048 54.8335 38.1333C54.8335 37.1617 55.0105 36.3055 55.3645 35.5645C55.7227 34.8194 56.2208 34.2389 56.8589 33.8232C57.501 33.4033 58.2503 33.1933 59.1065 33.1933C59.6005 33.1933 60.0883 33.2757 60.57 33.4403C61.0516 33.605 61.49 33.8726 61.8852 34.2431C62.2804 34.6094 62.5954 35.0952 62.83 35.7003C63.0646 36.3055 63.182 37.0506 63.182 37.9357V38.5532H55.8709V37.2935H61.7C61.7 36.7583 61.593 36.2808 61.3789 35.8609C61.1689 35.441 60.8684 35.1096 60.4774 34.8667C60.0904 34.6238 59.6334 34.5024 59.1065 34.5024C58.5261 34.5024 58.0239 34.6465 57.5998 34.9347C57.1799 35.2187 56.8568 35.5892 56.6304 36.0461C56.404 36.5031 56.2908 36.993 56.2908 37.5158V38.3556C56.2908 39.0719 56.4143 39.6791 56.6613 40.1772C56.9124 40.6712 57.2602 41.0478 57.7048 41.3072C58.1494 41.5624 58.666 41.69 59.2547 41.69C59.6376 41.69 59.9834 41.6365 60.2921 41.5295C60.605 41.4183 60.8746 41.2537 61.101 41.0355C61.3274 40.8132 61.5024 40.5374 61.6259 40.208L63.0338 40.6032C62.8856 41.0808 62.6365 41.5007 62.2866 41.8629C61.9367 42.2211 61.5045 42.501 60.9899 42.7027C60.4753 42.9003 59.8969 42.9991 59.2547 42.9991Z" fill="#0A0A0A"/>
<path d="M67.0299 37.0959V42.8015H65.5727V33.3168H66.9805V34.7988H67.104C67.3263 34.3172 67.6639 33.9302 68.1167 33.6379C68.5695 33.3415 69.1541 33.1933 69.8704 33.1933C70.5126 33.1933 71.0745 33.3251 71.5562 33.5885C72.0378 33.8479 72.4124 34.2431 72.68 34.7741C72.9476 35.301 73.0814 35.9679 73.0814 36.7748V42.8015H71.6241V36.8736C71.6241 36.1285 71.4306 35.548 71.0436 35.1323C70.6567 34.7124 70.1256 34.5024 69.4505 34.5024C68.9853 34.5024 68.5695 34.6033 68.2032 34.805C67.8409 35.0067 67.5548 35.301 67.3449 35.688C67.1349 36.075 67.0299 36.5443 67.0299 37.0959Z" fill="#0A0A0A"/>
<path d="M79.7713 42.9991C78.8821 42.9991 78.1165 42.7892 77.4743 42.3693C76.8321 41.9494 76.3381 41.371 75.9923 40.6341C75.6465 39.8972 75.4736 39.0554 75.4736 38.1086C75.4736 37.1453 75.6506 36.2952 76.0046 35.5583C76.3628 34.8173 76.8609 34.2389 77.499 33.8232C78.1412 33.4033 78.8904 33.1933 79.7466 33.1933C80.4135 33.1933 81.0145 33.3168 81.5497 33.5638C82.0849 33.8108 82.5233 34.1566 82.865 34.6012C83.2066 35.0458 83.4186 35.5645 83.501 36.1573H82.0437C81.9325 35.725 81.6855 35.3422 81.3027 35.0088C80.924 34.6712 80.4135 34.5024 79.7713 34.5024C79.2032 34.5024 78.7051 34.6506 78.277 34.947C77.853 35.2393 77.5216 35.653 77.2828 36.1882C77.0482 36.7192 76.9309 37.3429 76.9309 38.0592C76.9309 38.7919 77.0461 39.43 77.2767 39.9734C77.5113 40.5168 77.8406 40.9387 78.2646 41.2392C78.6928 41.5398 79.195 41.69 79.7713 41.69C80.15 41.69 80.4938 41.6242 80.8025 41.4924C81.1113 41.3607 81.3727 41.1713 81.5868 40.9243C81.8008 40.6773 81.9531 40.3809 82.0437 40.0351H83.501C83.4186 40.595 83.2149 41.0993 82.8897 41.548C82.5686 41.9926 82.1425 42.3466 81.6115 42.6101C81.0845 42.8694 80.4711 42.9991 79.7713 42.9991Z" fill="#0A0A0A"/>
<path d="M89.7819 42.9991C88.868 42.9991 88.0796 42.7974 87.4169 42.394C86.7582 41.9864 86.2498 41.4183 85.8917 40.6897C85.5376 39.9569 85.3606 39.1048 85.3606 38.1333C85.3606 37.1617 85.5376 36.3055 85.8917 35.5645C86.2498 34.8194 86.7479 34.2389 87.386 33.8232C88.0282 33.4033 88.7774 33.1933 89.6337 33.1933C90.1277 33.1933 90.6155 33.2757 91.0971 33.4403C91.5788 33.605 92.0172 33.8726 92.4124 34.2431C92.8076 34.6094 93.1225 35.0952 93.3571 35.7003C93.5918 36.3055 93.7091 37.0506 93.7091 37.9357V38.5532H86.398V37.2935H92.2271C92.2271 36.7583 92.1201 36.2808 91.906 35.8609C91.6961 35.441 91.3956 35.1096 91.0045 34.8667C90.6175 34.6238 90.1606 34.5024 89.6337 34.5024C89.0532 34.5024 88.551 34.6465 88.127 34.9347C87.7071 35.2187 87.3839 35.5892 87.1575 36.0461C86.9311 36.5031 86.8179 36.993 86.8179 37.5158V38.3556C86.8179 39.0719 86.9414 39.6791 87.1884 40.1772C87.4395 40.6712 87.7874 41.0478 88.2319 41.3072C88.6765 41.5624 89.1932 41.69 89.7819 41.69C90.1647 41.69 90.5105 41.6365 90.8193 41.5295C91.1321 41.4183 91.4017 41.2537 91.6282 41.0355C91.8546 40.8132 92.0295 40.5374 92.153 40.208L93.5609 40.6032C93.4127 41.0808 93.1637 41.5007 92.8137 41.8629C92.4638 42.2211 92.0316 42.501 91.517 42.7027C91.0024 42.9003 90.424 42.9991 89.7819 42.9991Z" fill="#0A0A0A"/>
</svg>
