<svg width="20" height="20" viewBox="0 0 20 20" fill="none" xmlns="http://www.w3.org/2000/svg">
<path d="M13.3397 6.37402L11.8579 10.8188C11.7772 11.0607 11.6413 11.2806 11.461 11.461C11.2806 11.6413 11.0607 11.7772 10.8188 11.8579L6.37402 13.3397L7.85588 8.89499C7.93653 8.65301 8.07241 8.43313 8.25277 8.25277C8.43313 8.07241 8.65301 7.93653 8.89499 7.85588L13.3397 6.37402Z" stroke="#272727" stroke-width="1.64286" stroke-linecap="round" stroke-linejoin="round"/>
<path d="M9.8571 18.0711C14.3937 18.0711 18.0714 14.3935 18.0714 9.85686C18.0714 5.32024 14.3937 1.64258 9.8571 1.64258C5.32048 1.64258 1.64282 5.32024 1.64282 9.85686C1.64282 14.3935 5.32048 18.0711 9.8571 18.0711Z" stroke="#272727" stroke-width="1.64286" stroke-linecap="round" stroke-linejoin="round"/>
</svg>
