<svg width="20" height="20" viewBox="0 0 20 20" fill="none" xmlns="http://www.w3.org/2000/svg">
<g clip-path="url(#clip0_230_156)">
<path d="M12.9018 17.4908C12.7478 17.6448 12.5389 17.7313 12.3211 17.7313C12.1032 17.7313 11.8944 17.6448 11.7403 17.4908L10.4375 16.188C10.2835 16.034 10.197 15.8251 10.197 15.6073C10.197 15.3894 10.2835 15.1806 10.4375 15.0265L15.026 10.438C15.1801 10.284 15.389 10.1975 15.6068 10.1975C15.8246 10.1975 16.0335 10.284 16.1875 10.438L17.4903 11.7408C17.6443 11.8948 17.7308 12.1037 17.7308 12.3215C17.7308 12.5394 17.6443 12.7483 17.4903 12.9023L12.9018 17.4908Z" stroke="#3C3C3C" stroke-width="1.64286" stroke-linecap="round" stroke-linejoin="round"/>
<path d="M14.7854 10.6785L13.656 5.03204C13.6253 4.87842 13.5512 4.73678 13.4427 4.62384C13.3341 4.5109 13.1955 4.43136 13.0432 4.39461L2.65705 1.66583C2.52022 1.63275 2.37719 1.63538 2.24167 1.67348C2.10616 1.71159 1.98271 1.78387 1.88317 1.88341C1.78363 1.98295 1.71134 2.1064 1.67324 2.24192C1.63514 2.37743 1.6325 2.52046 1.66558 2.65729L4.39437 13.0434C4.43112 13.1957 4.51066 13.3343 4.6236 13.4429C4.73654 13.5515 4.87817 13.6255 5.0318 13.6562L10.6783 14.7857" stroke="#3C3C3C" stroke-width="1.64286" stroke-linecap="round" stroke-linejoin="round"/>
<path d="M1.88892 1.88916L7.87385 7.87409" stroke="#3C3C3C" stroke-width="1.64286" stroke-linecap="round" stroke-linejoin="round"/>
<path d="M9.03544 10.6788C9.94276 10.6788 10.6783 9.94325 10.6783 9.03592C10.6783 8.1286 9.94276 7.39307 9.03544 7.39307C8.12811 7.39307 7.39258 8.1286 7.39258 9.03592C7.39258 9.94325 8.12811 10.6788 9.03544 10.6788Z" stroke="#3C3C3C" stroke-width="1.64286" stroke-linecap="round" stroke-linejoin="round"/>
</g>
<defs>
<clipPath id="clip0_230_156">
<rect width="19.7143" height="19.7143" fill="white"/>
</clipPath>
</defs>
</svg>
