<svg width="48" height="48" viewBox="0 0 48 48" fill="none" xmlns="http://www.w3.org/2000/svg">
<path d="M27.6244 27.6244C33.6293 27.6244 39.6341 27.6244 45.821 27.6244C45.821 33.6293 45.821 39.6341 45.821 45.821C39.8161 45.821 33.8112 45.821 27.6244 45.821C27.6244 39.8161 27.6244 33.8112 27.6244 27.6244Z" fill="#004182"/>
<path d="M3.65712 25.9728C3.82609 26.1321 3.9783 26.296 4.10716 26.4893C4.20319 26.5001 4.29118 26.5037 4.38733 26.503C4.41676 26.5032 4.44619 26.5033 4.4765 26.5035C4.57619 26.504 4.67585 26.5037 4.77553 26.5035C4.84729 26.5037 4.91904 26.5039 4.99079 26.5042C5.1888 26.5048 5.38681 26.5048 5.58482 26.5047C5.79803 26.5047 6.01124 26.5052 6.22445 26.5058C6.59414 26.5066 6.96382 26.507 7.33351 26.5071C7.72134 26.5073 8.10917 26.5077 8.497 26.5084C8.5211 26.5084 8.54519 26.5084 8.57001 26.5085C8.69235 26.5087 8.81469 26.5089 8.93703 26.5091C9.80414 26.5107 10.6713 26.5117 11.5384 26.5125C12.3809 26.5132 13.2234 26.5142 14.066 26.5155C14.1049 26.5155 14.1049 26.5155 14.1446 26.5156C14.4053 26.516 14.666 26.5164 14.9267 26.5168C15.4577 26.5176 15.9888 26.5184 16.5198 26.5192C16.5565 26.5192 16.5565 26.5192 16.5938 26.5193C18.2252 26.5216 19.8566 26.5233 21.4879 26.5248C21.4878 26.5798 21.4878 26.5798 21.4878 26.636C21.4858 28.2524 21.4841 29.8689 21.4845 31.4854C21.4845 31.5098 21.4846 31.5343 21.4846 31.5595C21.4847 32.0913 21.4849 32.623 21.4852 33.1547C21.4853 33.4155 21.4854 33.6763 21.4855 33.937C21.4855 33.963 21.4856 33.9889 21.4856 34.0156C21.4859 34.8569 21.4852 35.6982 21.484 36.5394C21.4828 37.4039 21.4826 38.2683 21.4837 39.1327C21.4839 39.2548 21.484 39.3768 21.4842 39.4989C21.4842 39.5229 21.4842 39.5469 21.4842 39.5717C21.4846 39.9586 21.484 40.3455 21.4829 40.7324C21.4818 41.1212 21.4819 41.5101 21.4831 41.8989C21.4837 42.1097 21.4839 42.3204 21.4826 42.5311C21.4814 42.724 21.4817 42.9168 21.4832 43.1096C21.4835 43.1795 21.4832 43.2493 21.4824 43.3191C21.465 43.6777 21.465 43.6777 21.592 43.9985C21.6729 44.0621 21.7514 44.1069 21.8426 44.1538C22.2884 44.5206 22.5274 45.0778 22.5831 45.6436C22.6102 46.2565 22.4113 46.818 22.0203 47.2896C21.6501 47.6862 21.1295 47.968 20.5827 47.9944C19.8443 48.0145 19.3117 47.8298 18.7628 47.3184C18.5084 47.059 18.5084 47.059 18.5084 46.9206C16.6786 46.917 14.8488 46.9153 13.019 46.916C12.803 46.9161 12.587 46.9162 12.3711 46.9162C12.3281 46.9163 12.2851 46.9163 12.2408 46.9163C11.5444 46.9165 10.848 46.9154 10.1516 46.9138C9.43712 46.9123 8.72269 46.9121 8.00826 46.9131C7.5673 46.9137 7.12637 46.9133 6.68542 46.9115C6.38316 46.9104 6.08092 46.9105 5.77866 46.9118C5.60418 46.9124 5.42976 46.9125 5.25529 46.911C5.09552 46.9097 4.93585 46.91 4.7761 46.9116C4.71833 46.9119 4.66055 46.9116 4.60279 46.9106C4.28663 46.8997 4.28663 46.8997 4.01152 47.0346C3.93985 47.1235 3.8812 47.2125 3.82339 47.3108C3.45873 47.7082 2.95137 47.9638 2.41204 47.997C1.83396 48.0196 1.3473 47.9173 0.879306 47.5591C0.849128 47.5361 0.81895 47.5132 0.787857 47.4896C0.365096 47.1401 0.0754088 46.6343 0.0187201 46.0859C-0.0260648 45.4083 0.121332 44.8432 0.573369 44.3201C0.648835 44.2366 0.715732 44.1658 0.81487 44.1113C0.961316 44.0239 1.04356 43.9573 1.08636 43.7882C1.09765 43.6343 1.09868 43.4831 1.0964 43.329C1.09668 43.2693 1.09711 43.2097 1.09766 43.1501C1.09878 42.9865 1.09791 42.8229 1.09671 42.6592C1.09577 42.4827 1.09667 42.3062 1.09735 42.1296C1.09827 41.8238 1.09802 41.518 1.09698 41.2123C1.09548 40.7701 1.09574 40.328 1.09643 39.8859C1.0975 39.1686 1.09715 38.4513 1.0959 37.734C1.09469 37.0372 1.09415 36.3404 1.09451 35.6436C1.09453 35.6006 1.09456 35.5577 1.09458 35.5134C1.09469 35.2979 1.09482 35.0825 1.09496 34.867C1.09606 33.0794 1.09485 31.2919 1.09213 29.5044C1.06475 29.494 1.03738 29.4837 1.00917 29.4731C0.60184 29.3019 0.314171 28.842 0.146194 28.4503C-0.0560133 27.9237 -0.0487788 27.2926 0.169887 26.7731C0.448702 26.1873 0.910298 25.7598 1.51778 25.5316C2.25309 25.2887 3.07815 25.4647 3.65712 25.9728ZM3.85286 29.0501C3.72385 29.2478 3.53857 29.4023 3.3268 29.5044C3.31868 31.3341 3.31243 33.1639 3.30869 34.9937C3.30824 35.2097 3.30778 35.4257 3.30732 35.6416C3.30722 35.6846 3.30713 35.7276 3.30703 35.7719C3.30549 36.4683 3.30269 37.1647 3.29943 37.8612C3.29612 38.5756 3.29415 39.29 3.29343 40.0045C3.29294 40.4454 3.2914 40.8863 3.28852 41.3273C3.28665 41.6295 3.28608 41.9318 3.28654 42.2341C3.28677 42.4085 3.28642 42.583 3.28452 42.7574C3.28279 42.9172 3.2827 43.0769 3.28392 43.2366C3.28407 43.2944 3.28362 43.3522 3.2825 43.4099C3.27068 43.7251 3.27068 43.7251 3.40387 43.9998C3.49318 44.0717 3.58358 44.1301 3.68151 44.1893C3.72772 44.2302 3.77308 44.2721 3.81674 44.3157C3.84342 44.3421 3.84342 44.3421 3.87064 44.369C3.92981 44.4376 3.92981 44.4376 3.98677 44.564C4.05826 44.6629 4.09667 44.6837 4.21772 44.7092C4.37022 44.7184 4.52109 44.7194 4.67378 44.7179C4.73319 44.7183 4.79259 44.7187 4.85199 44.7192C5.01539 44.7204 5.17875 44.72 5.34215 44.7194C5.5183 44.719 5.69444 44.72 5.87059 44.7208C6.21574 44.7222 6.56087 44.7222 6.90602 44.7218C7.18649 44.7214 7.46695 44.7215 7.74742 44.7219C7.78731 44.722 7.82719 44.722 7.86828 44.7221C7.9493 44.7222 8.03031 44.7223 8.11133 44.7224C8.87147 44.7235 9.6316 44.723 10.3917 44.722C11.0875 44.7211 11.7833 44.7221 12.479 44.724C13.1931 44.7259 13.9071 44.7266 14.6212 44.726C14.7019 44.726 14.7826 44.7259 14.8633 44.7259C14.9031 44.7258 14.9428 44.7258 14.9837 44.7258C15.2639 44.7257 15.5441 44.7263 15.8242 44.7273C16.1656 44.7284 16.507 44.7284 16.8484 44.727C17.0226 44.7263 17.1968 44.7261 17.3711 44.7273C17.5305 44.7284 17.6899 44.728 17.8494 44.7264C17.9071 44.7261 17.9649 44.7264 18.0226 44.7272C18.3255 44.7421 18.3255 44.7421 18.5864 44.6168C18.6406 44.5355 18.6798 44.4548 18.7212 44.3667C18.7779 44.2983 18.7779 44.2983 18.8409 44.2359C18.8615 44.2154 18.8822 44.1948 18.9034 44.1737C18.9695 44.1184 18.9695 44.1184 19.0429 44.0815C19.1359 44.0323 19.1891 43.9897 19.2532 43.9055C19.2969 43.7061 19.2903 43.5083 19.2874 43.305C19.2875 43.2423 19.2877 43.1796 19.2881 43.117C19.2887 42.9448 19.2876 42.7726 19.2862 42.6004C19.285 42.4147 19.2854 42.229 19.2856 42.0433C19.2857 41.7215 19.2848 41.3998 19.2832 41.0781C19.2809 40.6129 19.2802 40.1477 19.2798 39.6825C19.2792 38.9278 19.2773 38.1731 19.2747 37.4184C19.2721 36.6852 19.27 35.952 19.2688 35.2189C19.2688 35.1737 19.2687 35.1285 19.2686 35.082C19.2682 34.8553 19.2679 34.6286 19.2675 34.4019C19.2646 32.5211 19.2596 30.6403 19.2532 28.7595C17.3292 28.7505 15.4051 28.7437 13.481 28.7395C13.2539 28.739 13.0268 28.7385 12.7997 28.738C12.7545 28.7379 12.7093 28.7378 12.6627 28.7377C11.9304 28.736 11.1981 28.7329 10.4658 28.7294C9.71453 28.7257 8.96327 28.7235 8.21199 28.7227C7.74832 28.7222 7.28468 28.7205 6.82102 28.7174C6.50317 28.7153 6.18534 28.7147 5.86748 28.7152C5.68401 28.7154 5.5006 28.715 5.31715 28.713C5.14914 28.7111 4.98123 28.711 4.81321 28.7123C4.75248 28.7125 4.69174 28.712 4.63102 28.7107C4.27499 28.704 4.06237 28.7288 3.85286 29.0501Z" fill="#004182"/>
<path d="M3.50416 0.418184C3.81943 0.665609 3.81943 0.665609 3.9014 0.81487C3.98882 0.961316 4.05541 1.04356 4.2245 1.08636C4.3784 1.09765 4.52957 1.09868 4.68375 1.0964C4.74337 1.09668 4.80298 1.09711 4.8626 1.09766C5.02625 1.09878 5.18985 1.09791 5.3535 1.09671C5.53004 1.09577 5.70656 1.09667 5.88309 1.09735C6.18889 1.09827 6.49467 1.09802 6.80046 1.09698C7.24258 1.09548 7.68469 1.09574 8.12682 1.09643C8.84413 1.0975 9.56144 1.09715 10.2788 1.0959C10.9756 1.09469 11.6723 1.09415 12.3691 1.09451C12.4121 1.09453 12.455 1.09456 12.4993 1.09458C12.7148 1.09469 12.9302 1.09482 13.1457 1.09496C14.9333 1.09606 16.7208 1.09485 18.5084 1.09213C18.5238 1.05107 18.5238 1.05107 18.5396 1.00917C18.7108 0.60184 19.1707 0.314171 19.5624 0.146194C20.089 -0.0560133 20.7201 -0.0487788 21.2396 0.169887C21.8552 0.462897 22.2768 0.949696 22.5063 1.58789C22.6846 2.19515 22.5594 2.81699 22.2661 3.36227C22.1107 3.6195 21.8944 3.88229 21.6254 4.02343C21.5109 4.09956 21.5109 4.09956 21.4967 4.23623C21.4956 4.28949 21.4957 4.34279 21.4966 4.39606C21.4963 4.42557 21.496 4.45508 21.4957 4.48548C21.495 4.58503 21.4957 4.68451 21.4965 4.78406C21.4962 4.85588 21.4959 4.92769 21.4955 4.99951C21.4946 5.19736 21.495 5.39519 21.4957 5.59305C21.4962 5.80621 21.4954 6.01938 21.4948 6.23254C21.494 6.60203 21.4939 6.97152 21.4943 7.34101C21.4948 7.72858 21.4948 8.11616 21.4943 8.50374C21.4942 8.53987 21.4942 8.53987 21.4941 8.57672C21.494 8.69904 21.4938 8.82136 21.4936 8.94368C21.4923 9.81036 21.4919 10.677 21.4922 11.5437C21.4924 12.3858 21.4922 13.2278 21.4914 14.0699C21.4914 14.0958 21.4913 14.1217 21.4913 14.1485C21.4911 14.4091 21.4908 14.6697 21.4905 14.9303C21.49 15.4611 21.4895 15.992 21.4891 16.5228C21.489 16.5473 21.489 16.5717 21.489 16.5968C21.4876 18.2272 21.4877 19.8575 21.4879 21.4879C21.4512 21.4879 21.4146 21.4878 21.3768 21.4878C19.7603 21.4858 18.1438 21.4841 16.5274 21.4845C16.4907 21.4846 16.4907 21.4846 16.4532 21.4846C15.9215 21.4847 15.3897 21.4849 14.858 21.4852C14.5972 21.4853 14.3365 21.4854 14.0757 21.4855C14.0498 21.4855 14.0238 21.4856 13.9971 21.4856C13.1558 21.4859 12.3145 21.4853 11.4733 21.484C10.6089 21.4828 9.74444 21.4826 8.88002 21.4837C8.75796 21.4839 8.6359 21.484 8.51384 21.4842C8.48981 21.4842 8.46579 21.4842 8.44104 21.4842C8.05414 21.4847 7.66725 21.484 7.28035 21.4829C6.8915 21.4818 6.50266 21.4819 6.1138 21.4831C5.90306 21.4838 5.69235 21.4839 5.48161 21.4826C5.28875 21.4814 5.09596 21.4817 4.90311 21.4832C4.83327 21.4835 4.76341 21.4832 4.69357 21.4824C4.33502 21.465 4.33502 21.465 4.01417 21.592C3.95058 21.673 3.90577 21.7514 3.85887 21.8426C3.49207 22.2884 2.93489 22.5274 2.36909 22.5831C1.75619 22.6102 1.19475 22.4113 0.723155 22.0203C0.326539 21.6501 0.0446708 21.1295 0.0183088 20.5827C-0.00178677 19.8443 0.182958 19.3117 0.694335 18.7628C0.953761 18.5084 0.953761 18.5084 1.09214 18.5084C1.09573 16.6786 1.09746 14.8488 1.09669 13.019C1.0966 12.803 1.09653 12.5871 1.09647 12.3711C1.09645 12.3281 1.09644 12.2851 1.09643 12.2408C1.09625 11.5444 1.09733 10.848 1.09887 10.1516C1.10041 9.43712 1.10062 8.72269 1.09958 8.00826C1.09898 7.5673 1.09943 7.12637 1.10122 6.68542C1.10234 6.38316 1.10217 6.08092 1.10096 5.77866C1.10031 5.60418 1.10023 5.42976 1.10169 5.25529C1.10302 5.09553 1.10272 4.93585 1.10111 4.7761C1.10082 4.71833 1.10113 4.66055 1.1021 4.60279C1.11299 4.28663 1.11299 4.28663 0.978129 4.01152C0.889226 3.93985 0.800222 3.8812 0.701955 3.82339C0.304509 3.45873 0.0489284 2.95137 0.0156762 2.41204C-0.00686637 1.83396 0.0953951 1.3473 0.453659 0.879306C0.476567 0.849128 0.499475 0.81895 0.523077 0.787857C1.25897 -0.102314 2.56952 -0.239048 3.50416 0.418184ZM3.8234 3.68151C3.78253 3.72772 3.74061 3.77308 3.69703 3.81674C3.67943 3.83453 3.66182 3.85232 3.64369 3.87064C3.5751 3.92981 3.5751 3.92981 3.44867 3.98677C3.34984 4.05826 3.32902 4.09667 3.3035 4.21772C3.29434 4.37022 3.29334 4.52109 3.2948 4.67378C3.29446 4.73319 3.29402 4.79259 3.29347 4.85199C3.2923 5.01539 3.29267 5.17875 3.29331 5.34215C3.29372 5.5183 3.29271 5.69444 3.29189 5.87059C3.29051 6.21574 3.29048 6.56087 3.29096 6.90602C3.29132 7.18649 3.29123 7.46696 3.29082 7.74742C3.29076 7.78731 3.2907 7.82719 3.29064 7.86828C3.29052 7.9493 3.2904 8.03031 3.29028 8.11133C3.2892 8.87147 3.2897 9.6316 3.29071 10.3917C3.29158 11.0875 3.2906 11.7833 3.28873 12.479C3.28683 13.1931 3.28609 13.9071 3.28667 14.6212C3.28673 14.7019 3.28679 14.7826 3.28685 14.8633C3.28688 14.9031 3.2869 14.9428 3.28693 14.9837C3.28706 15.2639 3.28641 15.5441 3.28546 15.8242C3.28432 16.1656 3.2843 16.507 3.28573 16.8484C3.28642 17.0226 3.28661 17.1968 3.28541 17.3711C3.28432 17.5305 3.28471 17.6899 3.28627 17.8494C3.28658 17.9071 3.28635 17.9649 3.28553 18.0226C3.27066 18.3255 3.27066 18.3255 3.39595 18.5864C3.47717 18.6406 3.5579 18.6798 3.64604 18.7212C3.71443 18.7779 3.71443 18.7779 3.77684 18.8409C3.80761 18.8719 3.80761 18.8719 3.839 18.9034C3.89434 18.9695 3.89434 18.9695 3.93125 19.0429C3.98041 19.1359 4.02303 19.1891 4.10716 19.2533C4.30664 19.2969 4.50441 19.2903 4.70776 19.2874C4.77042 19.2875 4.83308 19.2877 4.89574 19.2881C5.06796 19.2887 5.24014 19.2876 5.41236 19.2862C5.59806 19.285 5.78375 19.2854 5.96945 19.2856C6.29119 19.2857 6.61292 19.2848 6.93466 19.2833C7.39984 19.2809 7.86502 19.2802 8.3302 19.2799C9.08492 19.2792 9.83962 19.2773 10.5943 19.2747C11.3275 19.2721 12.0607 19.27 12.7938 19.2688C12.8616 19.2687 12.8616 19.2687 12.9308 19.2686C13.1574 19.2682 13.3841 19.2679 13.6108 19.2675C15.4916 19.2646 17.3724 19.2596 19.2533 19.2533C19.2622 17.3292 19.2691 15.4051 19.2732 13.481C19.2737 13.2539 19.2742 13.0268 19.2747 12.7997C19.2748 12.7545 19.2749 12.7093 19.275 12.6627C19.2767 11.9304 19.2798 11.1981 19.2834 10.4658C19.287 9.71453 19.2892 8.96327 19.29 8.21199C19.2905 7.74832 19.2922 7.28468 19.2954 6.82102C19.2974 6.50317 19.298 6.18534 19.2975 5.86748C19.2973 5.68401 19.2977 5.50061 19.2998 5.31715C19.3017 5.14914 19.3018 4.98123 19.3004 4.81321C19.3003 4.75248 19.3008 4.69174 19.302 4.63102C19.3139 4.2958 19.3139 4.2958 19.1689 4.00452C19.0682 3.91911 19.0682 3.91911 18.9626 3.85286C18.7649 3.72385 18.6104 3.53857 18.5084 3.3268C16.6786 3.31868 14.8488 3.31243 13.019 3.30869C12.803 3.30824 12.5871 3.30778 12.3711 3.30732C12.3281 3.30722 12.2851 3.30713 12.2408 3.30703C11.5444 3.30549 10.848 3.30269 10.1516 3.29943C9.43713 3.29612 8.7227 3.29415 8.00826 3.29343C7.5673 3.29294 7.12637 3.2914 6.68543 3.28852C6.38317 3.28665 6.08093 3.28608 5.77866 3.28654C5.60419 3.28677 5.42976 3.28642 5.25529 3.28452C5.09553 3.28279 4.93586 3.2827 4.7761 3.28392C4.71833 3.28407 4.66055 3.28362 4.60279 3.2825C4.21051 3.27539 4.03161 3.33715 3.8234 3.68151Z" fill="#004182"/>
<path d="M28.8825 0.384378C29.1238 0.570585 29.3442 0.759534 29.5044 1.02119C29.5044 1.0446 29.5044 1.06801 29.5044 1.09213C31.3341 1.09573 33.1639 1.09746 34.9937 1.09669C35.2097 1.0966 35.4257 1.09653 35.6416 1.09646C35.6846 1.09645 35.7276 1.09644 35.7719 1.09642C36.4683 1.09625 37.1647 1.09733 37.8612 1.09886C38.5756 1.10041 39.29 1.10062 40.0044 1.09958C40.4454 1.09898 40.8863 1.09943 41.3273 1.10122C41.6295 1.10234 41.9318 1.10217 42.234 1.10096C42.4085 1.1003 42.583 1.10023 42.7574 1.10169C42.9172 1.10302 43.0769 1.10271 43.2366 1.10111C43.2944 1.10082 43.3522 1.10113 43.4099 1.10209C43.7261 1.11299 43.7261 1.11299 44.0012 0.978127C44.0729 0.889224 44.1315 0.80022 44.1893 0.701954C44.554 0.304508 45.0613 0.0489268 45.6007 0.0156745C46.1787 -0.00686805 46.6654 0.0953934 47.1334 0.453657C47.1636 0.476565 47.1938 0.499473 47.2248 0.523075C47.6476 0.872566 47.9373 1.37845 47.994 1.92683C48.0388 2.60445 47.8914 3.16956 47.4393 3.6926C47.3638 3.77619 47.2994 3.84685 47.1978 3.89742C47.0914 3.95712 47.0295 4.0088 46.956 4.10716C46.9064 4.33615 46.9135 4.56347 46.9163 4.79686C46.916 4.8686 46.9156 4.94033 46.915 5.01206C46.9139 5.2096 46.9148 5.4071 46.916 5.60464C46.9169 5.82076 46.916 6.03688 46.9154 6.25301C46.9145 6.62499 46.9147 6.99695 46.9157 7.36893C46.9173 7.90198 46.9168 8.43501 46.916 8.96807C46.915 10.2497 46.9169 11.5314 46.9184 12.8131C46.9191 15.6758 46.9198 18.5385 46.9206 21.4879C40.19 21.4879 33.4594 21.4879 26.5248 21.4879C26.527 12.8131 26.527 12.8131 26.5302 10.0702C26.5296 9.26147 26.5296 9.26147 26.5286 8.45271C26.5281 8.06762 26.5287 7.68255 26.5298 7.29746C26.5309 6.90493 26.5308 6.51242 26.5296 6.11989C26.529 5.90677 26.5288 5.69368 26.5301 5.48056C26.5313 5.28798 26.531 5.09546 26.5295 4.90287C26.5292 4.83313 26.5295 4.76338 26.5303 4.69364C26.5477 4.33505 26.5477 4.33505 26.4207 4.01417C26.3398 3.95058 26.2613 3.90577 26.1701 3.85887C25.7243 3.49207 25.4853 2.93489 25.4296 2.36909C25.4025 1.75619 25.6014 1.19475 25.9925 0.723153C26.7325 -0.0697643 27.9846 -0.237679 28.8825 0.384378ZM29.3697 3.48075C29.3435 3.53578 29.3175 3.59088 29.2915 3.64604C29.2348 3.71443 29.2348 3.71443 29.1718 3.77684C29.1512 3.79735 29.1305 3.81787 29.1093 3.839C29.0432 3.89434 29.0432 3.89434 28.9698 3.93125C28.8768 3.9804 28.8236 4.02303 28.7595 4.10716C28.7158 4.30664 28.7224 4.50441 28.7253 4.70776C28.7252 4.77027 28.725 4.83278 28.7246 4.89528C28.724 5.06744 28.7251 5.23954 28.7265 5.41169C28.7278 5.60003 28.7273 5.78837 28.7271 5.97671C28.727 6.34244 28.7283 6.70815 28.7301 7.07388C28.7322 7.49684 28.7324 7.91979 28.7326 8.34276C28.7341 9.45968 28.7381 10.5766 28.7417 11.6935C28.7476 14.1882 28.7534 16.6829 28.7595 19.2533C34.0152 19.2533 39.2709 19.2533 44.6859 19.2533C44.6932 16.76 44.7005 14.2667 44.7081 11.6979C44.7113 10.9098 44.7145 10.1216 44.7179 9.30961C44.719 8.60502 44.719 8.60502 44.7198 7.90043C44.7201 7.58584 44.7214 7.27126 44.7234 6.95668C44.7256 6.59403 44.7266 6.23141 44.7261 5.86876C44.7259 5.68316 44.7263 5.49761 44.7282 5.31202C44.7299 5.14422 44.73 4.97651 44.7288 4.80872C44.7286 4.74803 44.7291 4.68733 44.7302 4.62665C44.7436 4.29848 44.7436 4.29848 44.6088 4.01115C44.5196 3.9393 44.4296 3.88179 44.3312 3.8234C44.2849 3.78256 44.2396 3.74065 44.196 3.69703C44.1782 3.67943 44.1604 3.66182 44.1421 3.64369C44.0829 3.5751 44.0829 3.5751 44.0259 3.44866C43.9544 3.34984 43.916 3.32901 43.795 3.3035C43.6425 3.29434 43.4916 3.29334 43.3389 3.2948C43.2795 3.29446 43.2201 3.29401 43.1607 3.29347C42.9973 3.29229 42.834 3.29267 42.6706 3.2933C42.4944 3.29372 42.3183 3.29271 42.1421 3.29189C41.797 3.29051 41.4518 3.29048 41.1067 3.29096C40.8262 3.29132 40.5458 3.29123 40.2653 3.29081C40.2254 3.29076 40.1855 3.2907 40.1444 3.29064C40.0634 3.29052 39.9824 3.2904 39.9014 3.29028C39.1412 3.2892 38.3811 3.2897 37.621 3.29071C36.9252 3.29158 36.2294 3.2906 35.5337 3.28873C34.8196 3.28682 34.1056 3.28609 33.3916 3.28667C33.3108 3.28673 33.2301 3.28679 33.1494 3.28685C33.0898 3.28689 33.0898 3.28689 33.029 3.28693C32.7488 3.28706 32.4686 3.28641 32.1885 3.28546C31.8471 3.28432 31.5057 3.2843 31.1643 3.28572C30.9901 3.28642 30.8159 3.28661 30.6416 3.28541C30.4822 3.28432 30.3228 3.28471 30.1633 3.28627C30.1056 3.28658 30.0478 3.28635 29.9901 3.28553C29.632 3.2692 29.632 3.2692 29.3697 3.48075Z" fill="#004182"/>
</svg>
